<svg version="1.1" preserveAspectRatio="none" xmlns="http://www.w3.org/2000/svg" width="500" height="500" viewBox="0 0 500 500"><rect width="100%" height="100%" fill="#101F37" fill-opacity="1"/><svg viewBox="155.8268 826.9024 343.1968 304.2583" width="333" height="295.2184108359985" x="83.5px" y="102.3908px" xmlns="http://www.w3.org/2000/svg" xmlns:xlink="http://www.w3.org/1999/xlink" preserveAspectRatio="none"><defs></defs><style>.companyName {fill:#E9B0D6;fill-opacity:1;}.icon1 {fill:#929292;fill-opacity:1;}.icon2 {fill:#E9B0D6;fill-opacity:1;}.icon3 {fill:#E5E5E5;fill-opacity:1;}.icon3-str {stroke:#E5E5E5;stroke-opacity:1;}.text {fill:#E9B0D6;fill-opacity:1;}</style><g opacity="1" transform="rotate(0 155.8268 1108.3607)">
<svg width="343.1968" height="22.8" x="155.8268" y="1108.3607" version="1.1" preserveAspectRatio="none" viewBox="3.24 -28 426.23999999999995 28.32">
  <g transform="matrix(1 0 0 1 0 0)" class="text"><path id="id-6izo4zJp18" d="M3.24-26.48L14.40-26.48Q16.76-26.48 18.96-25.58Q21.16-24.68 22.84-22.96L22.84-22.96Q26.56-19.16 26.56-13.24L26.56-13.24Q26.56-7.32 22.84-3.52L22.84-3.52Q21.16-1.80 18.96-0.90Q16.76 0 14.40 0L14.40 0L3.24 0L3.24-26.48ZM6.24-2.84L14.28-2.84Q18.44-2.84 21.04-5.92L21.04-5.92Q23.56-8.88 23.56-13.24L23.56-13.24Q23.56-17.60 21.04-20.56L21.04-20.56Q18.44-23.64 14.28-23.64L14.28-23.64L6.24-23.64L6.24-2.84Z M50.36 0L50.36-3.20Q47.96 0.32 43.20 0.32L43.20 0.32Q38.88 0.32 36.16-2.68L36.16-2.68Q33.52-5.64 33.52-10L33.52-10Q33.52-14.36 36.16-17.32L36.16-17.32Q38.88-20.32 43.40-20.32Q47.92-20.32 50.36-16.76L50.36-16.76L50.36-20L53.36-20L53.36 0L50.36 0ZM43.60-2.40L43.60-2.40Q46.84-2.40 48.72-4.64L48.72-4.64Q50.52-6.76 50.52-10L50.52-10Q50.52-13.24 48.72-15.36L48.72-15.36Q46.84-17.60 43.60-17.60L43.60-17.60Q40.40-17.60 38.40-15.36L38.40-15.36Q36.52-13.24 36.52-10L36.52-10Q36.52-6.76 38.40-4.64L38.40-4.64Q40.40-2.40 43.60-2.40Z M62.56-20L65.56-20L65.56-16.88Q66.64-18.32 68.20-19.32Q69.76-20.32 71.76-20.32Q73.76-20.32 75.20-19.76Q76.64-19.20 77.72-18.08L77.72-18.08Q80.20-15.64 80.20-11.64L80.20-11.64L80.20 0L77.20 0L77.20-11.56Q77.20-14.32 75.64-15.96Q74.08-17.60 71.60-17.60L71.60-17.60Q69.08-17.60 67.32-15.92L67.32-15.92Q65.56-14.20 65.56-11.52L65.56-11.52L65.56 0L62.56 0L62.56-20Z M89.20 0L89.20-20L92.20-20L92.20 0L89.20 0ZM89.08-27.28L92.32-27.28L92.32-23.36L89.08-23.36L89.08-27.28Z M110.32-2.40L110.32-2.40Q114.36-2.40 116.12-5.76L116.12-5.76L119.40-5.76Q118.36-3.04 116.10-1.36Q113.84 0.32 110.28 0.32L110.28 0.32Q105.76 0.32 102.92-2.68L102.92-2.68Q100.16-5.60 100.16-10L100.16-10Q100.16-14.44 102.80-17.32L102.80-17.32Q105.60-20.32 110.08-20.32L110.08-20.32Q114.56-20.32 117.36-17.32L117.36-17.32Q120-14.44 120-10L120-10L120-8.80L103.24-8.80Q103.56-6.04 105.44-4.24L105.44-4.24Q107.36-2.40 110.32-2.40ZM110.08-17.60L110.08-17.60Q107.32-17.60 105.44-15.88L105.44-15.88Q103.68-14.24 103.28-11.60L103.28-11.60L116.88-11.60Q116.48-14.24 114.72-15.88L114.72-15.88Q112.84-17.60 110.08-17.60Z M130.68-28L130.68 0L127.68 0L127.68-28L130.68-28Z M152.28-26.80L152.28-26.80Q158.20-26.80 162-22.84L162-22.84Q165.72-19 165.72-13.24Q165.72-7.48 162-3.64L162-3.64Q158.20 0.32 152.28 0.32L152.28 0.32Q146.36 0.32 142.56-3.64L142.56-3.64Q138.84-7.48 138.84-13.24Q138.84-19 142.56-22.84L142.56-22.84Q146.36-26.80 152.28-26.80ZM152.28-2.60L152.28-2.60Q157-2.60 159.92-5.68L159.92-5.68Q162.72-8.64 162.72-13.24L162.72-13.24Q162.72-17.84 159.92-20.80L159.92-20.80Q157-23.88 152.28-23.88L152.28-23.88Q147.56-23.88 144.64-20.80L144.64-20.80Q141.84-17.84 141.84-13.24L141.84-13.24Q141.84-8.64 144.64-5.68L144.64-5.68Q147.56-2.60 152.28-2.60Z M188.68-14.64L185.64-14.64Q185.24-17.76 180.62-17.76Q176-17.76 176-14.88L176-14.88Q176-13.68 176.98-13.06Q177.96-12.44 179.44-12.04Q180.92-11.64 182.66-11.30Q184.40-10.96 185.88-10.34Q187.36-9.72 188.34-8.64Q189.32-7.56 189.32-5.68L189.32-5.68Q189.32-2.76 187.12-1.22Q184.92 0.32 181.16 0.32L181.16 0.32Q177.16 0.32 174.80-1.68L174.80-1.68Q172.64-3.44 172.48-6.28L172.48-6.28L175.60-6.28Q175.88-3.52 178.72-2.56L178.72-2.56Q179.76-2.24 180.78-2.24Q181.80-2.24 182.68-2.36Q183.56-2.48 184.40-2.80L184.40-2.80Q186.32-3.56 186.32-5.40L186.32-5.40Q186.32-6.64 185.34-7.30Q184.36-7.96 182.88-8.38Q181.40-8.80 179.66-9.14Q177.92-9.48 176.44-10.08Q174.96-10.68 173.98-11.72Q173-12.76 173-14.60L173-14.60Q173-17.32 174.98-18.82Q176.96-20.32 180.84-20.32L180.84-20.32Q184.52-20.32 186.64-18.56L186.64-18.56Q188.40-17.08 188.68-14.64L188.68-14.64Z M214.60 0L211.60 0L211.60-3.12Q210.52-1.68 208.96-0.68Q207.40 0.32 205.40 0.32Q203.40 0.32 201.96-0.24Q200.52-0.80 199.44-1.92L199.44-1.92Q196.96-4.36 196.96-8.36L196.96-8.36L196.96-20L199.96-20L199.96-8.44Q199.96-5.68 201.52-4.04Q203.08-2.40 205.56-2.40L205.56-2.40Q208.08-2.40 209.84-4.08L209.84-4.08Q211.60-5.80 211.60-8.48L211.60-8.48L211.60-20L214.60-20L214.60 0Z M232.48-20.32L232.48-20.32Q236.96-20.32 239.76-17.32L239.76-17.32Q242.40-14.44 242.40-10L242.40-10Q242.40-5.56 239.76-2.68L239.76-2.68Q236.96 0.32 232.48 0.32L232.48 0.32Q228 0.32 225.20-2.68L225.20-2.68Q222.56-5.56 222.56-10L222.56-10Q222.56-14.44 225.20-17.32L225.20-17.32Q228-20.32 232.48-20.32ZM232.48-2.40L232.48-2.40Q235.72-2.40 237.60-4.64L237.60-4.64Q239.40-6.76 239.40-10L239.40-10Q239.40-13.24 237.60-15.36L237.60-15.36Q235.72-17.60 232.48-17.60L232.48-17.60Q229.24-17.60 227.36-15.36L227.36-15.36Q225.56-13.24 225.56-10L225.56-10Q225.56-6.76 227.36-4.64L227.36-4.64Q229.24-2.40 232.48-2.40Z M250.36-28L253.36-28L253.36-16.88Q254.44-18.32 256-19.32Q257.56-20.32 259.56-20.32Q261.56-20.32 263-19.76Q264.44-19.20 265.52-18.08L265.52-18.08Q268-15.64 268-11.64L268-11.64L268 0L265 0L265-11.56Q265-14.32 263.44-15.96Q261.88-17.60 259.40-17.60L259.40-17.60Q256.88-17.60 255.12-15.92L255.12-15.92Q253.36-14.20 253.36-11.52L253.36-11.52L253.36 0L250.36 0L250.36-28Z M292.60 0L292.60-3.20Q290.20 0.32 285.44 0.32L285.44 0.32Q281.12 0.32 278.40-2.68L278.40-2.68Q275.76-5.64 275.76-10L275.76-10Q275.76-14.36 278.40-17.32L278.40-17.32Q281.12-20.32 285.64-20.32Q290.16-20.32 292.60-16.76L292.60-16.76L292.60-20L295.60-20L295.60 0L292.60 0ZM285.84-2.40L285.84-2.40Q289.08-2.40 290.96-4.64L290.96-4.64Q292.76-6.76 292.76-10L292.76-10Q292.76-13.24 290.96-15.36L290.96-15.36Q289.08-17.60 285.84-17.60L285.84-17.60Q282.64-17.60 280.64-15.36L280.64-15.36Q278.76-13.24 278.76-10L278.76-10Q278.76-6.76 280.64-4.64L280.64-4.64Q282.64-2.40 285.84-2.40Z M304.80 0L304.80-20L307.80-20L307.80 0L304.80 0ZM304.68-27.28L307.92-27.28L307.92-23.36L304.68-23.36L304.68-27.28Z M317-20L320-20L320-16.88Q321.08-18.32 322.64-19.32Q324.20-20.32 326.20-20.32Q328.20-20.32 329.64-19.76Q331.08-19.20 332.16-18.08L332.16-18.08Q334.64-15.64 334.64-11.64L334.64-11.64L334.64 0L331.64 0L331.64-11.56Q331.64-14.32 330.08-15.96Q328.52-17.60 326.04-17.60L326.04-17.60Q323.52-17.60 321.76-15.92L321.76-15.92Q320-14.20 320-11.52L320-11.52L320 0L317 0L317-20Z M348.32 0L345.32 0L345.32-17.36L341.24-17.36L341.24-20L345.32-20L345.32-27.16L348.32-27.16L348.32-20L352.92-20L352.92-17.36L348.32-17.36L348.32 0Z M368.72-2.40L368.72-2.40Q372.76-2.40 374.52-5.76L374.52-5.76L377.80-5.76Q376.76-3.04 374.50-1.36Q372.24 0.32 368.68 0.32L368.68 0.32Q364.16 0.32 361.32-2.68L361.32-2.68Q358.56-5.60 358.56-10L358.56-10Q358.56-14.44 361.20-17.32L361.20-17.32Q364-20.32 368.48-20.32L368.48-20.32Q372.96-20.32 375.76-17.32L375.76-17.32Q378.40-14.44 378.40-10L378.40-10L378.40-8.80L361.64-8.80Q361.96-6.04 363.84-4.24L363.84-4.24Q365.76-2.40 368.72-2.40ZM368.48-17.60L368.48-17.60Q365.72-17.60 363.84-15.88L363.84-15.88Q362.08-14.24 361.68-11.60L361.68-11.60L375.28-11.60Q374.88-14.24 373.12-15.88L373.12-15.88Q371.24-17.60 368.48-17.60Z M395.32-2.40L395.32-2.40Q397.24-2.40 398.72-3.48Q400.20-4.56 400.88-6.28L400.88-6.28L404.12-6.28Q403.20-3.32 400.76-1.52L400.76-1.52Q398.20 0.32 394.68 0.32L394.68 0.32Q390.28 0.32 387.52-2.68L387.52-2.68Q384.84-5.60 384.84-10L384.84-10Q384.84-14.40 387.52-17.32L387.52-17.32Q390.28-20.32 394.68-20.32L394.68-20.32Q398.20-20.32 400.76-18.48L400.76-18.48Q403.20-16.68 404.12-13.72L404.12-13.72L400.88-13.72Q400.20-15.44 398.72-16.52Q397.24-17.60 395.32-17.60Q393.40-17.60 392.06-17Q390.72-16.40 389.80-15.36L389.80-15.36Q387.84-13.20 387.84-10L387.84-10Q387.84-6.80 389.80-4.64L389.80-4.64Q391.80-2.40 395.32-2.40Z M411.84-28L414.84-28L414.84-16.88Q415.92-18.32 417.48-19.32Q419.04-20.32 421.04-20.32Q423.04-20.32 424.48-19.76Q425.92-19.20 427-18.08L427-18.08Q429.48-15.64 429.48-11.64L429.48-11.64L429.48 0L426.48 0L426.48-11.56Q426.48-14.32 424.92-15.96Q423.36-17.60 420.88-17.60L420.88-17.60Q418.36-17.60 416.60-15.92L416.60-15.92Q414.84-14.20 414.84-11.52L414.84-11.52L414.84 0L411.84 0L411.84-28Z"/></g>
</svg>
</g><g opacity="1" transform="rotate(0 190.2247 966.3607)">
<svg width="274.4009" height="120" x="190.2247" y="966.3607" version="1.1" preserveAspectRatio="none" viewBox="4.3359 -30.9375 71.7266 31.3672">
  <g transform="matrix(1 0 0 1 0 0)" class="companyName"><path id="id-D6z1nYkh2" d="M4.34 0L4.34-30.53L15.53-30.53Q20.43-30.53 24.04-29.47Q27.66-28.42 30.03-26.46Q32.40-24.49 33.56-21.69Q34.73-18.89 34.73-15.39L34.73-15.39Q34.73-12.07 33.57-9.25Q32.42-6.43 30.06-4.37Q27.70-2.30 24.08-1.14Q20.47 0.02 15.57 0.02L15.57 0.02L4.34 0ZM10.53-5.35L17.05-5.35Q19.82-5.35 21.91-6.06Q24.00-6.78 25.40-8.09Q26.80-9.39 27.50-11.25Q28.20-13.11 28.20-15.39L28.20-15.39Q28.20-17.64 27.50-19.44Q26.80-21.25 25.40-22.51Q24.00-23.77 21.91-24.45Q19.82-25.14 17.05-25.14L17.05-25.14L10.53-25.14L10.53-5.35Z M41.14-15.35L41.14-15.35Q41.14-18.81 42.41-21.68Q43.68-24.55 45.97-26.61Q48.27-28.67 51.48-29.80Q54.70-30.94 58.60-30.94L58.60-30.94Q62.49-30.94 65.71-29.80Q68.93-28.67 71.23-26.61Q73.52-24.55 74.79-21.68Q76.06-18.81 76.06-15.35L76.06-15.35Q76.06-11.88 74.79-8.97Q73.52-6.07 71.23-3.98Q68.93-1.89 65.71-0.73Q62.49 0.43 58.60 0.43L58.60 0.43Q54.70 0.43 51.48-0.73Q48.27-1.89 45.97-3.98Q43.68-6.07 42.41-8.97Q41.14-11.88 41.14-15.35ZM47.33-15.35L47.33-15.35Q47.33-12.99 48.18-11.09Q49.03-9.20 50.54-7.86Q52.06-6.52 54.12-5.80Q56.18-5.08 58.60-5.08L58.60-5.08Q61.02-5.08 63.08-5.80Q65.14-6.52 66.65-7.86Q68.15-9.20 69.01-11.09Q69.87-12.99 69.87-15.35L69.87-15.35Q69.87-17.71 69.01-19.59Q68.15-21.46 66.65-22.76Q65.14-24.06 63.08-24.75Q61.02-25.43 58.60-25.43L58.60-25.43Q56.18-25.43 54.12-24.75Q52.06-24.06 50.54-22.76Q49.03-21.46 48.18-19.59Q47.33-17.71 47.33-15.35Z"/></g>
</svg>
</g><g opacity="1" transform="rotate(0 272.545 826.9024)">
<svg width="109.7604" height="109.4583" x="272.545" y="826.9024" version="1.1" preserveAspectRatio="none" viewBox="26.79998779296875 27.003000259399414 146.3999786376953 145.9969940185547">
  <g transform="matrix(1 0 0 1 0 0)"><g><path d="M173.1 95.764c0-.199-.3-.299-.4-.199L112 156.058l-.2.199-11.2 11.162c-.3.299-.7.399-1.1.399s-.8-.199-1.2-.498c-.6-.598-.4-1.595.2-2.192l1.4-1.395v-.199c0-.199 0-.498.3-.399.1 0 .2 0 .3.1l60.2-59.995c0-.199.1-.299.3-.299l11.6-11.56c.1-.1.1-.1.1-.199-.2-1.495-.4-2.89-.7-4.285 0-.199-.3-.299-.4-.1l-29 28.901c.2.1.3.299.4.498 0 .199-.2.498-.4.399-.2-.1-.4-.199-.5-.299l-35.5 35.379c.2.399.6.498.3.897-.2.199-.4.299-.6.1-.3-.299-.1-.498 0-.797l-5.6 5.581c-.3.299-.7.399-1.1.399s-.8-.199-1.2-.498c-.6-.598-.4-1.595.2-2.192L110 143.8c-.1-.1-.2-.1-.1-.299.1-.1.2-.299.3-.399.1.1.1.199.2.199l41.6-41.458v-.498c.1 0 .3.1.4.1L171 82.909c.1-.1.1-.199.1-.199-.3-1.296-.7-2.591-1.1-3.887-.1-.199-.3-.199-.4-.1l-67.7 67.469c.2.299 0 .498-.3.797-.1-.199-.1-.299-.1-.498l-.9.897c-.3.299-.7.399-1.1.399s-.8-.199-1.2-.498c-.6-.598-.4-1.595.2-2.192l10.8-10.763c0-.1-.1-.199-.1-.199-.1-.199.2-.299.3-.299.1 0 .1.1.2.1l4.6-4.584v-.199c0-.1.1-.199.2-.199h.1l17.7-17.64v-.199c0-.299.2-.199.4-.199l16.6-16.344c-.4.1-.4-.199-.5-.498.3-.1.7-.299.9.1v.1l2.3-2.292c-.2-.399-.1-.897.4-1.794.4-.897.9-1.794 2.2-1.395.1.897-1.1.698-1 1.395 0 .1 0 .1.1.199l15-14.949c.1-.1.1-.199.1-.299-.1-.299-.2-.598-.4-.897 0 .1-.1.1-.2.1-.4.1-.4-.299-.5-.598-.1-.299-.4-.299-.6-.399-.2-.199-.9 0-.6-.598.1-.199.6-.498 1.1-.598-.1-.199-.1-.399-.2-.498-.1-.199-.3-.199-.4-.1l-1.6 1.595c0 .199-.1.299-.3.299L147.3 91.18c0 .399 0 .797-.4.698-.1 0-.2 0-.3-.1l-41.8 41.657c.1 0 .1 0 .2.1.7.299 0 .897.4 1.395-.5.1-.7-.1-.8-.299-.1-.199-.2-.399-.3-.498l-3.4 3.388c-.3.299-.7.399-1.1.399s-.8-.199-1.2-.498c-.6-.598-.4-1.595.2-2.192l4.1-4.086c-.5-.399-1.1-.997-1-1.096 0-.1.1-.1.1-.199.1-.199.5-.299.6-.199.3.299.8.399 1.2.698l5.1-5.083v-.299c0-.299.1-.399.4-.399.1 0 .2.1.2.1l2.6-2.591v-.299c0-.299.2-.199.4-.199h.1L140 94.27c0-.199 0-.399.3-.299h.1l4.5-4.485h-.4c-1 .1-.8-.797-.5-.997.7-.598.9-1.495 1.2-2.192.1-.199.1-.399.4-.399.3 0 .2.199.3.399.3.897 1 1.794-.5 2.192-.2.1-.4.399 0 .498l20.8-20.729c.1-.1.1-.199 0-.299-.5-1.096-1.1-2.192-1.7-3.289-.1-.199-.3-.199-.4-.1l-25.6 25.513c.1 0 .3.1.4.1-.1.299-.2.498-.5.498-.2 0-.4 0-.4-.199l-14.7 14.351c-.1.299-.3.498-.5.498l-22.2 22.124c-.3.299-.7.498-1.1.498s-.8-.199-1.2-.498c-.6-.598-.4-1.595.2-2.192l10.1-10.066v-.1.1l25.8-25.712c0-.698.8-.897 1.3-1.395.1-.1.2-.199.3-.199l26-25.911c.1-.1.1-.199 0-.299-.6-.997-1.3-1.993-2-2.99-.1-.1-.3-.199-.4 0l-1.7 1.694v.1c-.2.299-.4.598-.7.598l-1.1 1.096c0 .1-.1.299-.2.399-.1.1-.3.299-.4.199l-10 9.966c.7.698.1.997-.4 1.395-.1-.199-.3-.399-.4-.698l-44.2 44.049c-.3.299-.7.498-1.1.498s-.8-.199-1.2-.498c-.6-.598-.4-1.595.2-2.192l13.2-13.155c-.1-.199-.2-.399 0-.598.2-.299.5-.299.8-.199l19.7-19.633c.1-.1.1-.199.1-.299v.199l5.4-5.382v-.199c0-.399.4-.399.6-.498h.1l17-16.942c-.3-.598-.2-1.196.2-1.694.3-.399.5-.997.6-1.595.1-.199 0-.498.3-.498s.5.299.4.598c-.2.797-.4 1.495-.7 2.292L157.8 56c.1-.1.1-.199 0-.299-.7-.897-1.5-1.794-2.2-2.691-.1-.1-.3-.1-.4 0L145 63.176c.1.199.3.299.4.399-.5.199-1 .399-1.4.598l-2.6 2.591c.1.598.1.897-.3.997-.2 0-.3-.199-.4-.399l-.4.399c.2.199.6.399.2.797-.2.199-.3.199-.4 0-.1-.1-.1-.199-.2-.399l-6.1 6.079c-.1.299-.2.598-.2.897 0 .199 0 .897-.5.698-.2-.1-.5-.199-.6-.399l-32.1 31.99c-.3.299-.7.399-1.1.399s-.8-.199-1.2-.498c-.4-.498-.4-1.196-.1-1.794-.5-.598-.9-1.395-1.4-1.993-.2-.199 0-.399.2-.598.3-.199.6 0 .8.199.4.498.8.997 1 1.694l26.9-26.808c-.1-.399-.1-.797 0-1.296.1.399.2.797.1 1.196L137 66.764c.1-.299.2-.498.3-.797.4-1.196.9-1.595 1.8-1.296l2.6-2.591c.1-.1.2-.299.4-.399l.1-.1 11-10.962c.2-.199.2-.399 0-.598-.7-.797-1.5-1.595-2.3-2.292-.2-.199-.4-.1-.6 0l-5.9 5.88v.199c-.1.598-.7.598-1.2.997l-.8.797c.2.1.4.299.4.498.1.299-.2.498-.5.498-.1-.199-.3-.299-.5-.498l-36.2 36.076c0 .1-.1.199-.2.199l-4.9 4.883c-.3.299-.7.399-1.1.399s-.8-.199-1.2-.498c-.6-.598-.4-1.595.2-2.192l9.3-9.268V85.5l.1.1 1.9-1.894c-.3-.299-.6-.598-.9-.997-.2-.199-.5-.299-.7-.199-.4.1-.9.598-.7-.399 0-.199-.4-.299-.6-.299s-.5-.1-.3-.399c.1-.199.3-.299.5-.199.7.1 1.2.797 1.9.997.2-.299.3-.598.5-.797.2-.299.6-.299.9-.1.4.199.7.399.5.897-.1.199-.2.498-.3.698l2.3-2.292c-.2-.1-.3-.199-.3-.399 0-.498.7-.399.9-.797l.3.299 9.8-9.767c-.1-.1 0-.299.1-.399.2-.199.4-.199.5-.199l8.1-8.072c-.1-.1-.2-.199-.2-.299 0-.199.1-.399.3-.399.1 0 .3.1.4.199l10.3-9.966c0-.199.2-.399.4-.399l1-.997-.1-.1c.1-.199.2-.399.4-.498h.2l3.1-3.089c.2-.199.2-.399 0-.598-.8-.698-1.7-1.395-2.5-2.093-.2-.1-.4-.1-.5 0l-.1.1.1.1c-.1.299-.2.498-.5.598h-.2l-.4.399c.1.1.1.199.2.299-.1.299-.2.598-.5.598-.2 0-.3-.199-.3-.299L118 70.053c0 .498.1 1.096-.4 1.495-.1.1-.2.1-.3.199-.2-.1-.4-.299-.4-.598l-14.1 14.052c.3-.1.6.199.8.399.6 0 1.2-.1 1.7.299-.7.897-1.1.897-1.7-.1h-.1c-.3-.1-.6.199-.8-.199v-.399l-.6.598c.5.1.7.498 1.1.897.2.199.1.299 0 .498-.2.199-.3.299-.6.1-.3-.299-.7-.498-1.1-.797l-.1.1c-.2.698-.4 1.196-.5 1.794-.1.399-.4.498-.6.498-.4 0-.2-.399-.2-.598 0-.199 0-.399.1-.598-.2.1-.4.1-.6.1h-.1v.1c-.1.399-.4.698-.7.897-.4 0-.3-.299-.3-.498-.1-.399.1-.598.3-.698l-.3-.299c-.4-.498-.4-1.096-.2-1.694h-.2c-.5.1-.9.199-1.3.598-.1.1-.4.199-.5 0-.2-.199 0-.399.1-.399.8-.498 1.3-1.196 1.8-2.093.3-.498.8-.399 1.3 0l.2.199.6-.598c.1-.498.5-.698 1-.997l32.9-32.788-.1-.1h-.1c-.4-.199-.7-.399-.6-.897.1-.399.5-.299.6-.199.2.1.6.199.7.498h.3l6.8-6.777c0-.1-.1-.1-.1-.199 0-.299.2-.199.4-.199h.1l.3-.299c.2-.199.2-.498-.1-.598-.9-.598-1.8-1.296-2.7-1.894-.2-.1-.4-.1-.5.1l-16.4 16.344c1.6 1.595 1.5 1.694-.1 2.89.1-.698-.7-1.296-.9-1.894l-21.2 21.128c-.3.299-.7.498-1.1.498s-.8-.199-1.2-.498c-.6-.598-.4-1.595.2-2.192l14.1-14.052c0-.1-.1-.299 0-.399.1-.498.4-.498.8-.399l22.9-22.922c.2-.199.1-.498-.1-.598-1-.598-2-1.096-3-1.595-.2-.1-.3 0-.5.1l-32.2 32.09c-.3.299-.7.399-1.1.399s-.8-.199-1.2-.498c-.6-.598-.4-1.595.2-2.192l31-30.894c.2-.199.2-.598-.1-.797-1-.498-2.1-.897-3.1-1.296-.2-.1-.4 0-.5.1l-25.2 25.114c-.3.299-.7.399-1.1.399s-.8-.199-1.2-.498c-.6-.598-.4-1.595.2-2.192l23.9-23.719c.2-.199.1-.698-.2-.797-1.1-.399-2.3-.698-3.4-.997-.2 0-.3 0-.4.1l-17.6 17.54c-.3.299-.7.399-1.1.399s-.8-.199-1.2-.498c-.6-.598-.4-1.595.2-2.192l15.7-15.646c.3-.299.1-.797-.3-.797-.6-.1-1.1-.199-1.7-.299-.1.399-.3.698-.5 1.096-.1.1-.2.199-.4.1-.3-.199-.3-.598-.3-.997v-.299c-.3 0-.6-.1-1-.1-.2 0-.3 0-.4.1l-9.2 9.169c-.2.199-.6.399-.9.399 0 .299-.2.698-.4.698-.3 0-.7-.399-.7-.698 0-.1 0-.199.1-.299l-.3-.299c-.6-.598-.4-1.595.2-2.192l2.8-2.79c0-.199.1-.399.3-.498h.2l1.3-1.296a.783.783 0 0 0-.4-.399c-.1 0 0-.498.1-.598.2-.199.5 0 .5.199 0 .1.1.299.2.399L105.4 28c.3-.299.1-.797-.3-.897-1.2-.1-2.6-.1-4-.1 0 .1.1.199.1.299 0 .299-.3.399-.4.598-.3-.1-.5-.299-.5-.598 0-.1 0-.199.1-.299h-2.7l-.3.598-.3-.598c-1 0-2 .1-3 .1v.1c-.1.399-.4.399-.8.399-.2 0-.4 0-.5-.299 0-.1.1-.1.1-.1-34.1 2.79-62.1 30.795-65.6 65.276.3 0 .5.1.4.399 0 .299-.1.498-.4.498h-.2c-.1.897-.1 1.794-.2 2.691.1.1.1.299 0 .399v.598c.1.1.2.1.2.199.1.299.9 0 .6.598-.1.199-.4.399-.6.299-.1-.1-.2-.1-.3-.199v3.588c.2.1.4.299.5.498 0 .1-.3.498-.4.399.1 1.595.2 3.289.3 4.883 0-.299.3-.598.5-.598.4 0 .6.299.6.698 0 .299-.1.498-.4.598-.2-.199-.7-.299-.7-.698.1.598.1 1.296.2 1.894.1.199.1.299.1.498.2 1.495.4 2.89.7 4.285.1 0 .1-.1.3 0 .3.1.6.199.5.598 0 .299-.2.498-.5.498h-.1c.3 1.395.7 2.89 1 4.285.2 0 .4.1.6.1-.2.199-.4.199-.5.1a74.209 74.209 0 0 0 6.2 15.148c.1-.1.2-.199.2-.299.1-.299 1.6.498 1.6.997 0 .399-.1.598-.5.698-.2-.1-.4-.199-.7-.199 2.1 3.588 4.4 6.976 7.1 10.165.1-.1.2-.1.4 0 .3.199.3.498.2.698 1.6 1.894 3.3 3.787 5.2 5.481h.1c.2 0 .4 0 .3.299v.1l.3.299c0-.1.1-.199.3-.199.3 0 .6.199.6.498 0 .199-.1.299-.2.399a73.94 73.94 0 0 0 27.3 15.746c.3-.299.7-.498 1.3-.897-.4-.498-.7-1.096-1.4-1.296 0-.399 1.6-.598.2-1.196-.1-.1-.1-.897.3-1.196.2-.199.5-.299.7-.199.2.1.2.399.1.598 0 .199-.3.498-.2.698.3.598-.2 1.993 1.3 1.196.1-.1.5-.1.4.199-.4 1.495.6.498.9.498.6-.1 1.2-.598 1.6.299.4.897-.1 2.192-.9 2.491.2.1.4.1.6.199.2 0 .4 0 .6.1 5.3 1.196 10.9 1.894 16.5 1.894.2-.1.5-.199.7-.299l29.3-29.2v-.1c0-.399.3-.598.7-.598l38.2-38.07c0-.1-.1-.199-.1-.199-.1-.199.2-.199.4-.299h.3l3.7-3.687c0-.1.1-.1.1-.199 0-1.102 0-2.696-.1-4.391zm-5.6-4.484c.3 0 .4 0 .4.299s-.2.498-.4.698c-.3 0-.3-.299-.4-.498 0-.3.1-.499.4-.499zm-65.2 65.775c.2-.1.3.1.3.299 0 .199 0 .299-.2.299s-.2-.1-.3-.299c.1-.1.1-.2.2-.299zm-3.3 6.477c.2 0 .3.1.2.299-.1.1-.2.199-.3.399-.1-.199-.3-.299-.3-.498 0-.299.2-.2.4-.2zm63.9-74.046c.3 0 .4.199.5.399 0 .199-.2.399-.4.498-.3.1-.3-.199-.5-.299.1-.399.2-.598.4-.598zm-1.6 1.196c.3-.199.4.1.4.299 0 .399-.2.498-.5.698-.3-.1-.4-.299-.4-.598-.2-.399.3-.299.5-.399zm-3.5 3.289c.4 0 .6-.199.4-.598-.4-.797.6-.598.7-1.096.5.199.7.498.4.797l-1.8 2.392c-.1.199-.3.399-.5 0-.2-.1.6-1.495.8-1.495zm-3.8 1.096c.2-.698.6-1.196 1.3-1.296.6-.399.8.199 1.1.399.2.199-.1.498-.4.698-.4.299-.9.598-1.3.897-.2.199-.4.299-.7.1-.3-.2-.3-.499 0-.798zm-20.2 22.921c.1 0 .3 0 .3.199 0 .1-.1.199-.3.199-.1 0-.2-.199-.3-.299.2.001.3-.099.3-.099zm-11.5 11.66c.3 0 .6.199.5.498 0 .199-.1.598-.4.498s-.4-.399-.4-.897c0 .001.1-.099.3-.099zm-21.6 18.637s.2-.1.3 0c.2.199.1.498 0 .797-.4-.199-.5-.498-.3-.797zm66.9-73.548c.3 0 .4.399.4.698 0 .1-.1.299-.4.299-.2-.1-.4-.299-.4-.598.1-.101.2-.399.4-.399zm-.9-.499c.1 0 .3 0 .3.199 0 .299-.1.399-.4.498-.1 0-.3-.1-.3-.299 0-.298.1-.398.4-.398zm-4.6 4.883c.4.199.1.498.1.797-.1-.199-.3-.498-.4-.698.1.001.2-.099.3-.099zm-4.7 3.788c.2 0 .4 0 .4.299 0 .199-.2.399-.5.399-.1 0-.3-.199-.4-.399 0-.399.3-.2.5-.299zm-2.7 1.694c.2 0 .3 0 .3.299-.1.1-.3.199-.4.299-.2 0-.3-.1-.2-.299 0-.2.2-.299.3-.299zm-10.8 13.155c.2 0 .4.1.3.299 0 .1-.2.199-.3.299-.1-.1-.2-.299-.3-.399 0-.199.2-.199.3-.199zm-.7 1.395c.3 0 .2.199.2.399s0 .498-.3.399c-.1 0-.3-.299-.3-.399-.1-.2.1-.399.4-.399zm-10.6 7.674c.2 0 .3.1.4.299 0 .199-.1.299-.3.399-.2 0-.4 0-.4-.299.1-.3.1-.399.3-.399zm-1.6 1.494c.2 0 .5 0 .5.299 0 .1 0 .299-.2.299s-.3-.199-.4-.299c-.1-.099-.1-.299.1-.299zm11.1-19.034c.4.199.4.598.2 1.096-.4-.199-.8-.399-.7-.797 0-.1.4-.299.5-.299zm-5.2 5.581c.2.199.5.399.6.598.1.199-.2.299-.4.399-.3-.1-.5-.299-.5-.598.1-.1.2-.3.3-.399zm-27.4 26.907c.1 0 .3 0 .3.199-.1.199-.2.399-.4.399s-.2-.199-.2-.299c0-.199.1-.299.3-.299zm-.6-1.594c.2 0 .2.1.2.299 0 .299 0 .399-.5.399 0 0-.2 0-.2-.199.1-.2.3-.399.5-.499zm49.8-56.806c.2 0 .5-.1.4.299 0 .1-.2.299-.4.399-.3 0-.3-.199-.5-.399.1-.299.3-.299.5-.299zm-10.9 11.461c.2 0 .5 0 .5.299s-.4.399-.8.399c-.2 0-.3-.1-.3-.399 0-.398.3-.299.6-.299zm-3.4 1.296c.3 0 .6.1.5.498.1.299-.2.797-.3.797-.4-.1-.5-.498-.6-.797 0-.299.2-.498.4-.498zm10.1-20.43c.2.199.4.399.4.598 0 .199-.2.299-.4.299s-.4-.1-.4-.399c.2-.1.3-.299.4-.498zm-5.7 6.278c.3 0 .4.1.5.399.1.199 0 .399-.3.399s-.4-.199-.4-.399c0-.199 0-.399.2-.399zm-1.5.399c.3.1.4.299.4.598.1 0 .1.1.2.1.2.199.6-.1.7.299 0 .1 0 .199-.1.199-.4.1-.6-.1-.8-.399-.4 0-.7-.1-.6-.498-.1-.1.1-.299.2-.299zm-4.7 4.883c.2 1.096.2 1.096.8.698.3-.199.5-.1.7.1.3.299.2.598 0 .897-.2.199-.2.598-.7.399-.6-.101-1.1-1.097-.8-2.094zm-1.3 3.588c.1 0 .3.199.3.299.1.199-1.1 1.794-1.4 1.794-.1-.1-.3-.299-.4-.498-.2-.399 1.1-1.695 1.5-1.595zm-3.9.099c.2 0 .4.1.3.399-.1.199-.2.399-.3.498-.1-.1-.3-.199-.3-.399 0-.199.1-.498.3-.498zm1.2 2.492c-.2.498-.5.897-1 .997-.4 0-.5-.199-1-1.694.7.597 1.3.597 2 .697zm-9.4 6.677c.1-.299.4-.598.6-.897.2.199.6.299.4.698-.2.299-.5.598-.7.897-.4-.2-.4-.499-.3-.698zm-.6.598c.5.1.6.598.9.797-.1.299-.2.498-.3.498-.5-.199-.8-.498-.9-.997 0-.298.1-.398.3-.298zM114.2 94.17c.1 0 .3 0 .4.299-.1.1-.2.299-.3.299-.2.1-.3-.1-.3-.299-.1-.199 0-.299.2-.299zm30.7-38.668c.2-.199.4-.199.6-.1.4.399-.2.698-.1 1.196-.4-.398-.8-.597-.5-1.096zm-4.4 5.681c.3 0 .6.1.6.399 0 .399-.4.598-.6.698-.4 0-.7-.199-.6-.399-.1-.399.3-.598.6-.698zm-2.5.698c.3 0 .5.199.5.498.1.199-.2.498-.3.498-.3 0-.4-.399-.6-.498 0-.299.1-.498.4-.498zm-3.9 6.278c-.2 0-.3-.299-.4-.399 0-.299.2-.299.3-.299.3-.1.3.199.3.399.1.1.1.299-.2.299zm2.9-4.883s-.1.199-.2.199c-.4.1-.5-.199-.7-.698.5.1.8.1.9.499zm-2.7.897c.4.1.5.498.5.797 0 .199-.2.299-.4.498-.4-.299-.5-.598-.6-.997 0-.199.3-.398.5-.298zm-1.4 1.594c.2-.199.4-.199.6.1.5.199 1.1-.299 1.7.299-.7 0-1.2-.1-1.7-.1-.2.199-.4.299-.6.199s-.2-.298 0-.498zm.3 2.392c.2.498.8.897.1 1.296-.3.199-.6.299-.8-.1-.3-.698.6-.797.7-1.196zm-1.8-.199c.3 0 .4.199.3.399-.1.199-.1.498-.4.598-.2-.1-.4-.299-.4-.598.1-.2.3-.399.5-.399zm-1.8 2.691c0-.199.2-.299.4-.299s.3.1.3.299-.2.299-.7.299c.1.099 0-.1 0-.299zm.7 1.694c.3-.1.6.299.6.399-.2.498-.7.698-1.1.997-.2.199-.3-.1-.3-.299.1-.499.2-.998.8-1.097zm-8.3 4.883c-.1.399.5.598.1.897-.1.1-.3 0-.4 0-.3-.299-.1-.498.3-.897zm-9.3 10.863c.1.199-.1.498-.3.498-.4 0-.5-.399-.8-.698.5-.299.9-.299 1.1.2zm-1.5.498c.4.1.8.299.8.698 0 .399-.5.498-.7.498s-.6-.299-.6-.797c.1-.2.2-.399.5-.399zm-3.3 1.794c.2.299.6.399.5.797 0 .199-.1.299-.2.299-.3-.1-.5-.299-.5-.598.1-.199.2-.299.2-.498zm-7.5 9.866c.5-.399.6.299 1 .399h-.8c-.4.299-.8.698-1.4.897.3-.598.2-1.396 1.2-1.296zm43.4-52.919c.1-.1.2 0 .2.199s-.1.199-.3.299c0-.1-.1-.199-.1-.199.1-.199.2-.199.2-.299zm-3 1.695c.5.399 1 .698 1.4 1.196.3.299.4.598-.1.997-.6.399-.6-.1-.7-.399-.2-.698-.8-1.196-.6-1.794zm-3.1 4.883c-.5-.698-.8-1.096-.8-1.894 1 .299.9.897.8 1.894zm-7.8 5.979c.1 0 .2.1.2.199 0 .199-.2.399-.4.399s-.2-.199-.2-.299c-.1-.299.1-.398.4-.299zm-4.9 3.787c.2 0 .4.1.4.299 0 .1-.2.199-.3.399-.1-.199-.3-.299-.3-.399-.1-.199 0-.299.2-.299zm-.5 3.887c.1-.199-.1-.598.3-.498.2 0 .4.299.4.598s-.1.598-.3.598c-.4 0-.5-.399-.4-.698zm-1.5.1c.2 0 .4 0 .4.299-.1.399-.4.498-.7.598-.3.1-.4-.1-.4-.399 0-.399.3-.498.7-.498zm-.9 2.093c.1-.1.2-.299.4-.199.3.299.2.698 0 1.296-.3-.499-.6-.699-.4-1.097zm-3.9 3.388c.2.1.4.1.4.299.1.1-.1.299-.2.299-.3 0-.4-.1-.4-.399 0-.099-.1-.299.2-.199zm-1.7 0c.2.399.2.598 0 .897-.2-.299-.2-.498 0-.897zM97.4 87.493c0-.199.1-.299.3-.199.2 0 .2.199.2.299s-.2.199-.2.299c-.3-.1-.3-.3-.3-.399zM140 40.055c.2 0 .3.199.4.299 0 .199-.1.299-.3.299s-.3-.199-.3-.399c0 .001 0-.199.2-.199zm-1.3.997c.1-.199.3-.1.4 0 .5.498.2.997-.2 1.495-.6-.499-.5-.997-.2-1.495zM125.6 53.21c.4.1.7.299.7.698 0 .299-.2.399-.3.498-.3-.299-.6-.498-.9-.797-.1-.1.1-.598.5-.399zm-8.3 11.461c.2-.1.4.199.4.299 0 .399-.3.498-.6.698-.3 0-.5-.199-.5-.399 0-.498.5-.498.7-.598zm-3 2.591c.2 0 .3.199.3.399s-.1.299-.4.299c-.2 0-.3-.1-.3-.399 0-.199.2-.299.4-.299zm-12.2 12.756c.2 0 .2.1.2.399-.3.399-.7.997-1.1 1.395-.3.299-.5-.1-.5-.299-.1-.398 1.1-1.495 1.4-1.495zm12.4-25.413c.6-.1.8.498 1 .997.2.498-.4.698-.7 1.096-.4-.399-.9-.797-1-1.296-.2-.697.4-.797.7-.797zm-15 17.939c.3-.199.3.199.4.299 0 .299-.2.399-.4.399s-.4-.1-.5-.399c0-.299.3-.199.5-.299zm16.9-27.007c.2 0 .4.199.4.399s-.2.399-.4.399c-.3 0-.3-.199-.4-.498 0-.101.2-.3.4-.3zm-.7-1.196c.2 0 .4-.1.4.199 0 .299-.2.299-.4.399-.2 0-.4-.199-.4-.399 0-.199.2-.199.4-.199zm-16.9 4.783c.2 0 .2.199.2.299 0 .299-.2.498-.4.598-.2 0-.3-.199-.4-.299.2-.299.3-.598.6-.598zm11.9-18.437c.1 0 .2.1.2.1 0 .199-.1.299-.3.498-.1-.1-.1-.199-.1-.299-.1-.099 0-.299.2-.299zm-1.4 0c.2 0 .5-.1.5.199s-.1.598-.5.598c-.2 0-.4-.199-.4-.498 0-.199.1-.398.4-.299zm-5.1 6.677c.3 0 .3.299.4.399 0 .199-.2.399-.3.399-.2-.1-.4-.299-.3-.498 0-.1 0-.3.2-.3zm-4.1 1.595c.1 0 .3 0 .3.498 0 0-.2.1-.3.199-.2 0-.3-.199-.3-.399-.1-.298.1-.298.3-.298zm-.5 3.787c.1 0 .3 0 .3.199s-.1.399-.4.399c-.2 0-.2-.199-.2-.299-.1-.199.1-.299.3-.299zm-.8-14.949c.1-.199.4-.1.5.1.4.797-.4.997-.5 1.694-.8-.797-.3-1.295 0-1.794zm-.8 90.092c-.3.1-.6.1-.6.598-.1 1.196-1 1.595-1.9 1.993-.2.1-.5.299-.6-.1-.1-.299-.3-.598.2-.797.6-.399 1.1-.897 1.7-1.296.3-.498.6-.797 1.2-.398zm-3.3-7.574c.3-.199.4-.399.7-.399.4-.1.3.199.3.399 0 .199 0 .399-.3.399-.4.099-.5-.2-.7-.399zm2.2 3.787c-.1.399-.6.399-.8.399-.5 0-.9-.1-.9-.399.1-.399.6-.399 1-.498.4.099.8.199.7.498zm-.1-5.88c0 .199 0 .299-.2.299-.3 0-.4-.1-.4-.399 0-.199.2-.199.3-.199.2 0 .3.1.3.299zm-.1-20.331c.2 0 .3.199.3.399s-.1.199-.3.299c-.1-.1-.3-.199-.3-.399-.1-.199.1-.299.3-.299zm-.2 12.258c-.4.1-.7.199-1-.1.3-.099.6-.099 1 .1zm-1.9-25.313c-.1 0-.3 0-.3-.199.1-.399.3-.598.6-.698.2-.1.2.199.2.199.1.499-.2.698-.5.698zm1 8.77c.5.598.2 1.096-.4 1.595-.1-.698-.8-1.096-.2-1.694.2-.2.4-.001.6.099zm-.9 2.591c.1.199-.2.498-.4.698-.4-.199-.7-.399-.8-.797 0-.199.1-.399.4-.498.4-.001.7.298.8.597zm-1 2.691c-1.1-.598-1-1.495-.8-2.491.1.797 1.4 1.195.8 2.491zm1.5 10.365c-.5.199-.9.1-1.6 0 .7-.2 1.1-.2 1.6 0zm-.9-3.588c.4-.199.8-.1 1.2 0-.4.099-.8.099-1.2 0zm3.1-11.561c-.6-.299-.3-.897-.5-1.196 0-.399-.6-.897-.2-.997.6-.199.1.698.6.797.3.4.1.898.1 1.396zm-.3-48.334c.1-.1.3-.299.4-.299.3-.1.1.199.2.299 0 .199-.1.299-.3.299-.2 0-.4-.199-.3-.299zm.7 6.079c.3 0 .6.199.5.399-.1.399-.4.598-.7.698-.4-.1-.8-.399-.7-.598.1-.2.4-.499.9-.499zm-1.3-2.691c.3.1.5.199.5.498 0 .199-.2.498-.6.399-.2-.1-.4-.199-.4-.498 0-.199.2-.399.5-.399zm-.5 8.671c-.2.498-.4.797-.9.498-.1-.1-.2-.199-.1-.498.4-.698.7.299 1 0zm-1-6.578c.2 0 .2.199.1.299-.1.1-.2.299-.4.299-.2-.1-.3-.299-.2-.498.1-.199.3-.199.5-.1zm-1.1-4.385c.1-.199.5-.1.8-.1 0 .399-.3.598-.4.997-.3-.399-.5-.697-.4-.897zm-.3 6.478c.4 0 .5.299.5.598 0 .199-.1.399-.3.399-.3-.1-.4-.299-.4-.598.1-.1 0-.399.2-.399zm-.3 6.179c.1-.1.3-.399.5-.1.4.399.1.797-.3 1.395 0-.598-.6-.797-.2-1.295zm-.4 1.395l.3.1c.1.299.1.498-.4.698-.1-.3-.2-.599.1-.798zm.1 24.416c.2 0 .2.199.2.299 0 .299-.1.399-.3.598-.1-.1-.3-.299-.3-.399-.1-.298.1-.498.4-.498zm-1.3 3.887c.3-.399.5.199.7.399s.7.399.5.797c.3-.1.7-.498 1 0 .3.399-.1.498-.3.698-.6.498-.7-.299-.9-.498-.2 0-.5 0-.6.1-.5.299-.9 0-1-.399-.2-.399.3-.798.6-1.097zm.2 9.966c-.1.1-.2.199-.3.199-.2 0-.4-.1-.4-.399 0-.1.2-.299.3-.299.2.001.4.2.4.499zm-1.5-39.664c-.3 0-.3-.299-.4-.399 0-.299.1-.299.3-.299.3 0 .4.1.4.399 0 .199-.2.299-.3.299zm-.6 2.192c0-.399-.2-.797.2-.997.1-.1.3 0 .4.1.2.399 0 .798-.6.897zm-.2-15.845c.4.199.8.498 1.1.897.1.199-.4.399-.8.598-.4-.199-.8-.399-.8-.897 0-.299.2-.698.5-.598zm-.4 1.793c.2 0 .2.199.2.299 0 .199-.1.299-.3.299-.2 0-.3-.199-.2-.399 0-.099.1-.199.3-.199zm0 67.27c.2 0 .3.1.4.299-.1.1-.3.299-.5.399-.3.1-.3-.199-.3-.299-.1-.2.2-.299.4-.399zm-1.6-3.289c.2.598.1.797 0 1.096-.1-.298-.1-.597 0-1.096zm-.7 4.485c-.5.498-1 .698-1.6.997-.6-.199-.9-.797-1-1.395-.1-.498.5-.299.8-.399.4-.1.8 0 1.2-.1.3-.1.5-.299.7 0 .2.299.2.598-.1.897zm1.2 29.798c.2-.1.4 0 .4.299-.2.498-.6.897-1.1 1.196-.2.1-.4-.199-.4-.399-.1-.797.6-.897 1.1-1.096zm-4-26.21c.2 0 .4.299.5.399 0 .399-.2.399-.4.498-.3.1-.5-.1-.6-.299 0-.299.2-.598.5-.598zm-.6-40.761c-.2-.1-.6-.199-.4-.797 0 0 0-.199.3-.1.2.1.7.1.6.598-.1.1-.2.399-.5.299zM85 97.658c0 .598.1.997-.1 1.395-.1-.498-.1-.897.1-1.395zm0-3.986c.4-.299 1 .1 1.3-.598 0 0 0 .1.2.199-.4.797-1 .299-1.5.399zm.2 9.667c.1.199-.1.399-.3.498-.5.299-.5-.299-.9-.598.6-.1 1-.199 1.2.1zm-.9 23.818c.4.1.7.299.8.698 0 .1-.2.299-.4.498-.3-.299-.8-.299-.9-.698-.1-.299.2-.498.5-.498zm.6-14.351c0-.199.3-.299.5-.399.3 0 .3.199.4.399-.1.199-.2.399-.5.399s-.5-.2-.4-.399zm-.2-27.605c-.3.299-.4-.1-.6-.199-.3-.199-.4-.498-.4-.897 0-.299.3-.199.5-.299 1.7-.199 2.4.299 2.6 1.894-.6-.699-1.2-1.396-2.1-.499zm1.9-8.372c-.2 0-.2-.1-.2-.299 0-.199.1-.399.3-.399.2 0 .2.199.2.299-.1.3-.1.399-.3.399zm0-31.791c.1 0 .2.1.3.1 0 .1 0 .299-.1.299-.3 0-.4 0-.4-.199-.1-.2 0-.2.2-.2zm-.4 27.008c0 .199-.1.299-.4.399-.1-.1-.1-.199-.2-.299.2-.1.3-.199.5-.299 0-.001.1.099.1.199zm-1-41.957c.2-.1.2-.698.6-.299.3.199.2.498 0 .797s-.5.598-.8.897c-.3-.697-.2-1.096.2-1.395zM85 45.537c.3-.1.3.199.3.399 0 .1 0 .399-.2.399s-.4-.199-.4-.299c-.1-.201.1-.499.3-.499zm-.6-6.777c0 .199 0 .399-.2.399s-.3-.1-.3-.199.1-.299.2-.399c.3-.1.2.099.3.199zm-.5 4.484c0 .1-.1.199-.2.199-.2 0-.3-.1-.2-.299 0-.1.1-.199.2-.199.3 0 .2.2.2.299zm-.1-9.567c.6-.1.4.399.4.598-.2.698-.5 1.296-.8 1.993-.5-.598-.2-2.491.4-2.591zm-.5 5.083c0 .1-.1.199-.1.299l-.3-.299.1-.2c.2 0 .3 0 .3.2zm-1.1-6.079c.1-.199.2-.498.4-.399.2.1.2.299.2.498s-.1.399-.4.299c-.1-.099-.2-.199-.2-.398zm.6 32.488c.7-.1 1.4.698 1.3 1.694 0 .698-.7.498-1.1.598-.5.1-.8-.399-.8-1.296-.2-.597.2-.996.6-.996zm-.1 25.613h-1c.4-.299.7-.2 1 0zm-1-44.947c0 .199-.1.299-.4.299-.2 0-.3-.199-.3-.399s.2-.199.4-.199c.2.001.3.1.3.299zm-.3-5.979c.2 0 .2.299.2.399 0 .199-.2.399-.3.399-.3 0-.3-.199-.3-.299 0-.1.1-.399.4-.499zm-.8 44.248c-.2-.399-.7-.698-.3-1.096 0-.1.3-.399.5-.1.4.499 0 .798-.2 1.196zm-.3-53.815c0-.299 0-.498.4-.498s.3.299.3.698c0 .199-.2.399-.4.399-.4-.001-.2-.4-.3-.599zm.3 5.082c.1 0 .3.199.3.299 0 .199-.1.399-.3.299-.1-.1-.4-.199-.3-.299 0-.099.2-.199.3-.299zm-1.4 6.578c.2-.1.2.1.2.199 0 .1-.1.199-.2.299l-.3-.299c.1 0 .2-.199.3-.199zm-.2 9.567c0-.598.8-.399 1-.797.2.1.5.299.3.498-.3.299-.7.598-1 .797-.4-.099-.3-.299-.3-.498zm.8 3.488c-.3-.498-.8-.598-.5-1.196.1-.1.2-.299.4-.1.4.399.2.798.1 1.296zm-1.4 48.733c.3-.498 1-.1 1.5-.1.4 0 .6.598.9.598-.1.598-.9.997-1.3.698-.2-.1-.4-.199-.5-.399-.2-.299-.8-.498-.6-.797zm1.8 8.77c-.1.399-.5.797-.9.797-.3 0-.7-.399-.7-.698.1-.399.5-.498 1-.498.2.1.7.001.6.399zm-2.5-19.932c.1.598.2 1.096 0 1.794-.2-.697-.1-1.196 0-1.794zm0 9.269c-.1-.598-.2-.897 0-1.296.2.399.2.698 0 1.296zm-1.3-65.077c.1 0 .3 0 .3.199s-.1.399-.3.299c-.1 0-.2-.199-.3-.299 0-.199.1-.199.3-.199zm-.8 47.238c.1-.199.3-.199.5-.1.6.299.4.698.2 1.595-.2-.798-.8-.897-.7-1.495zm-1.3 19.035c.4-.299.4-.997 1-1.196.5.698.7 1.296-.1 1.794-.2.199-.4.299-.7.1-.2-.2-.4-.499-.2-.698zm-.6-5.282c.2 0 .4.1.5.299.1.299-.2.299-.4.399-.3 0-.4-.1-.5-.299s.1-.3.4-.399zm-.6 6.776c.2-.199.7-.498 1.2-.1.4.299.8.598 1.1.997.2.1.5.299.4.498-.1.299-.4.1-.6.1v.797c-.7-.498-1.2-.897-1.7-1.296-.4-.298-.8-.697-.4-.996zm.1 33.486c-.4-.498.2-.797.4-1.296l.1-.1c.9-.299.9-.299.7-1.296 1.2.1 1.2.1.6 1.395-.2.498-.4.797-.7 1.096-.3.4-.8.599-1.1.201zm.8 4.783c-.6-.598-.2-1.196-.8-1.794 1.2.399.8.997.8 1.794zm-1-8.869c-.6-.698-.4-1.395 0-1.993.4-.598 1.1-.897 1.9-.698-.4 1.196-1.2 1.993-1.9 2.691zm-.7-26.31c.3-.498.6-.897 1.3-.598.2.1.3 0 .4 0 .9.399.9.498.3 1.495-.2.399-.4.698-.7.997 0-.797 0-1.296-1-1.196-.6-.001-.4-.499-.3-.698zm-.9-12.657c.2.399.2.797 0 1.196-.2-.399-.1-.797 0-1.196zm-.9 14.849c-.4-.399-.6-.897-.7-1.395-.1-.299.2-.498.5-.498.5 0 .8.498 1.2.797-.4.399-.5.897-1 1.096zm.8 15.547c0 .299-.1.598-.5.598-.3-.1-.5-.299-.4-.698 0-.299.1-.598.5-.498.4.2.4.299.4.598zm-3.6-23.22c0 .199-.2.299-.3.299-.1 0-.2-.199-.2-.299 0-.1.2-.299.3-.199 0-.001.1.199.2.199zm-.2-9.966c0-.199.2-.299.4-.199.2 0 .2.1.2.399-.1.1-.2.199-.4.199-.2-.001-.2-.2-.2-.399zm.7 44.448c.8.399 1 1.296 1.7 1.794.5.399-.1.797-.4 1.096-.6.598-.8-.1-1-.399-1.7-.698-.2-1.694-.3-2.491zm.2-9.867c.2 0 .2.1.2.299 0 .1.1.299-.1.299s-.2-.199-.2-.299c-.1-.199-.1-.299.1-.299zm.9-36.176c.1-.399.7-.498 1-.698.3-.1.5.199.5.498-.1.598-.7.498-1 .698-.3.1-.6-.199-.5-.498zm.3 19.932c.3 0 .4.1.4.399 0 .299-.4.399-.6.598-.2-.199-.3-.399-.3-.698s.3-.299.5-.299zm-1.1-5.282c-.3 0-.6 0-.6-.299s.2-.498.5-.498.5.199.5.498c.1.299-.2.199-.4.299zm-.1-56.606c.2 0 .5-.1.5.299 0 .299-.2.498-.4.598-.3-.1-.5-.199-.5-.498-.1-.399.1-.399.4-.399zm-.6 11.76c.2 0 .4.1.3.399-.2.498-.6.498-1.1.399.3-.4.2-.898.8-.798zM66 102.143c.7-.1 1 .399 1.3.797l-.1.1c-.6.199-1.1-.1-1.4-.598-.2-.1 0-.299.2-.299zm-.5 22.822c1.2.498.1 1.096.2 1.794-1.2-.698 0-1.197-.2-1.794zm.6 11.759c.2 0 .5.1.4.399-.1.299-.3.598-.6.598-.1 0-.5-.1-.5-.399.2-.398.4-.598.7-.598zm.4 6.777c.3 0 .3.199.3.498s-.1.399-.4.399-.3-.299-.3-.498c0-.2.1-.399.4-.399zm-1.7-60.194c.1-.1.2-.199.3-.399.1.199.3.299.3.498 0 .1-.2.299-.3.399-.1-.099-.4-.199-.3-.498zm.1 27.207c.2-.1.3 0 .3.1.1.399.8.498.6.997-.1.299-.2.797-.6.698-.5-.199-.3-.897-.7-1.196 0-.3.2-.499.4-.599zm-.2 30.695c0 .199-.1.399-.3.299-.3 0-.3-.299-.3-.498.1-.199.1-.399.3-.299.2.099.3.299.3.498zm-.2 13.753c.1.299-.2.399-.3.498-.3.1-.3-.1-.3-.299 0-.199-.1-.498.2-.498.2-.1.4.099.4.299zm-.7-51.922c.2 0 .5 0 .4.299 0 .199 0 .498-.4.498-.2-.1-.4-.199-.4-.399.1-.199.3-.398.4-.398zm-1.2 10.962c.2-.498.6-.698 1.1-.698.2 0 .3.1.2.299-.3.399-.7.698-1.1.797-.2.001-.3-.298-.2-.398zm-.7 10.664c-.3 0-.4-.199-.5-.399-.1-.1 0-.299.2-.299.3 0 .5.1.5.299.2.199 0 .299-.2.399zm.2 9.866v1.096H62v-.997c0-.099 0-.099.1-.099zm-.5-25.812c-.2 0-.3 0-.4-.199-.1-.199.2-.299.3-.399l.2.199c.1.299 0 .399-.1.399zm.2 9.268c.3 0 .4.199.3.399 0 .199-.1.299-.3.199-.2-.1-.3-.199-.3-.498 0-.199.1-.1.3-.1zm-.3-10.962c-.4.1-.4-.399-.5-.698-.1-.399.2-.797.6-.897.2 0 .6.1.7.598-.2.399-.4.897-.8.997zm.4-30.695c.1-.1.2 0 .2.1 0 .199 0 .399-.2.399-.2.1-.3-.1-.3-.299-.1-.1.2-.1.3-.2zm.4 23.719c-.6.199-.9.698-1.4.399-.2-.1-.1-.199 0-.399.3-.399.7-.299 1.4 0zm-2.9 41.956c-.7-.199-.8-.598-.6-1.096 0-.1.2-.399.4-.199.4.398.1.797.2 1.295zm.8-35.279c.2 0 .3.1.3.299 0 .299-.1.498-.4.399-.2 0-.3-.199-.3-.399 0-.199.1-.299.4-.299zm-.5-14.251c-.1-.199-.4-.299-.3-.598 0-.1.2-.399.3-.299.2.1.4.299.4.598 0 .099-.1.199-.4.299zm.3 5.282c-.1-.299.1-.399.3-.399.4 0 .7.299.8.598.1.199-.2.399-.4.498-.3-.099-.5-.398-.7-.697zm-.3-7.873c-.3-.1-.6-.199-.6-.498 0-.399.4-.498.7-.598.3-.1.5.299.5.598 0 .498-.5.199-.6.498zm-.2 43.55c.4 0 .4.199.5.498 0 .399-.3.299-.5.299-.3 0-.5-.1-.5-.299 0-.298.2-.498.5-.498zm.4-16.543c.1-.199.4-.299.7-.1.5.498 0 .897-.1 1.296-.6-.199-.8-.598-.6-1.196zm.4 8.272c.3 0 .6.199.6.498 0 .1-.2.299-.3.299-.3 0-.4-.299-.6-.498.1-.2.2-.299.3-.299zm.6-38.369c.4 0 .3.399.3.598 0 .199-.1.498-.3.399-.3 0-.4-.399-.5-.598 0-.299.2-.498.5-.399zm-.8-37.87c.2 0 .2.1.2.299 0 .1-.2.199-.3.399-.1-.199-.2-.299-.2-.399 0-.199.1-.299.3-.299zm-.6 36.276c.4.1 1 .1 1 .698.1.498-.5.698-.7.698-.4.1-.6-.399-.8-.797.2-.201.1-.599.5-.599zm-1 8.072c.3.1.5.399.6.698.1.199-.1.399-.3.498-.2-.199-.5-.498-.5-.797-.1-.2-.1-.399.2-.399zm.4 6.777c0 .199-.1.299-.4.299-.2-.1-.3-.199-.2-.399.1-.199.2-.399.3-.399.2.1.4.3.3.499zm-.2 34.681c.4.698.8 1.196.3 1.794-.3.399-.7.1-1-.199-.4-.199-.8.498-1.1.1-.3-.498.1-.598.5-.399.2.1.3.1.5.1.1-.599.8-.798.8-1.396zm-1-1.794c-.2.199-.3.698-.7.598-.3-.1-.3-.399-.3-.698 0-.399-.1-.698-.5-1.096-.7-.598.1-1.296.9-1.794.1.797 0 1.495.5 1.993.1.2.4.698.1.997zm-3.5-10.763c-.4.199-.6-.299-.6-.698 0-.598.5-.997.9-.997s.7.498 1 .897c-.3.698-.9.698-1.3.798zm.7.997c0 .399-.3.598-.5.698-.1-.199-.2-.399-.3-.498-.1-.498.1-.498.4-.498.1-.001.4-.001.4.298zm-5.9 1.694c-.6-.1-1.7-.199-1.6-.897 0-.598 1.1-.797 1.8-.997.2-.1.9.199.8.997-.2.299-.5.997-1 .897zm-.3 6.179c-.4-.498-.8-.897-.2-1.395.1-.1.2-.399.4-.1.4.498 0 .897-.2 1.495zm.7-27.905c-1.4-.199-2.3-.797-3.4-1.694 1.7-.199 2.5.598 3.4 1.694zm-3.3-13.553V88.29c.3.399.3.797 0 1.296zm.9-1.097c-.1 0-.3-.1-.2-.1 0-.498.1-.598.3-.498.1 0 .3 0 .3.199 0 .2-.1.399-.4.399zm.5.798c0 .1-.2.199-.3.399-.1-.1-.1-.199-.2-.299 0-.199 0-.299.2-.299.2-.1.3-.001.3.199zm.9 1.594c-.1.199-.3.399-.6.399-.2 0-.4-.1-.3-.299.1-.199.3-.399.6-.399.2 0 .3.1.3.299zm-.1-1.694c0-.1 0-.299.2-.299s.3.1.4.299c.1.199-.1.299-.3.299-.2 0-.3-.1-.3-.299zm1.6 21.227c.4.399.4.897.1 1.296-.4.399-.9.299-1.2-.199-.4-.299-.5-.797-.5-1.296v-.598c0-.399-.9-.598-.3-.897.6-.399.6.598.9.797.4.2.7.598 1 .897zm-.3-12.258c0-.199.2-.199.4-.1.1.1.3.199.3.299 0 .199-.1.199-.3.199-.2-.099-.5-.099-.4-.398zm-.9 22.125l-.1.199c-.2 0-.3-.1-.3-.299 0-.1.1-.199.2-.1 0 .1.1.1.2.2zm-1-16.544c-.1-.299.2-.299.4-.299.3 0 .6.1.7.399-.1.299-.3.399-.5.498-.4 0-.5-.299-.6-.598zm-.5 5.98c.4.1.6.399.6.399.1.598-.1.897-.2.797-.4-.1-.7-.399-.8-.797 0-.2.2-.499.4-.399zm-.1 11.759c.1-.199.2-.399.4-.399.3.1.3.299.3.399 0 .199-.1.498-.4.399-.2 0-.4-.1-.3-.399zm.5 18.039c.3 0 .4.199.5.498 0 .299-.2.498-.4.598-.3-.1-.5-.199-.5-.498s.2-.499.4-.598zm2.6-12.358c.2-.1.6-.1.6.299 0 .598-.6.498-.8.797-.3 0-.6-.1-.6-.399 0-.498.5-.597.8-.697zm-.3-5.382c-.2-.199-.6-.399-.2-.698.7-.598 1.1.199 1.7.399-.6.399-.9 1.097-1.5.299zm.5-18.935c0-.199 0-.399.2-.299.1 0 .3 0 .3.199s-.1.399-.3.399c0-.099-.1-.299-.2-.299zm.4-7.474c-.6.299-1.2.399-1.5 1.096-.1.399-.3.598-.6.299-.4-.399-1.4-.498-1-1.395.2-.498.6-.199.9 0 .6.399.8-.1.8-.498 0-.897.4-1.296 1.2-1.296.1 0 .2-.1.3-.199 1.2-.598 1.2-.598 1.4.698.1.498.2.997-.7.897-.3-.2-.5.298-.8.398zm-1.3-9.368c.4.498.1.897.1 1.196-.1-.299-.1-.698-.1-1.196zm1.6 6.079c0-.299.2-.498.5-.498.2 0 .4.299.4.498-.1.199-.3.399-.5.598-.3-.199-.4-.399-.4-.598zm1.7 5.98c-.2.598-.7.797-1.2 1.296-.1-.997-.2-1.794.6-2.392.2-.1.5-.1.4 0-.2.498-.9.896.2 1.096zm1.3-12.059c.1-.199.3-.399.5-.299.5.299 1 .598 1.2 1.196.1.299-.1.498-.3.598-.3.099-1.5-1.296-1.4-1.495zm1 26.509c0 .299-.2.299-.4.299s-.3-.199-.3-.399.2-.299.4-.299c.3.001.3.2.3.399zm-1-20.43c.2-.1.5.299.9.598-.6.498-1.2.997-1.8 1.296-.3.1-.6-.498-.5-.797.1-.798.8-.997 1.4-1.097zm-1.4 21.227c.3 0 .2.299.2.399 0 .199 0 .399-.2.399-.3 0-.3-.299-.4-.399 0-.199.1-.498.4-.399zm-.6-9.766c-.2-.1-.3-.299-.4-.399.1-.299.3-.299.5-.199.2 0 .4.199.3.399 0 .099-.2.299-.4.199zm.8 21.227c.4-.1.4.399.6.698-.1.299-.3.498-.6.498s-.5-.199-.5-.498c.1-.299.2-.698.5-.698zm.5-9.368c-.2-.1-.4-.199-.3-.498 0-.1 0-.299.2-.299.3 0 .3.299.4.399 0 .299-.2.498-.3.398zm-1.7 10.863c.2-.1.3.199.3.399 0 .1 0 .399-.2.399-.3 0-.4-.199-.4-.399 0-.1.2-.299.3-.399zm.2-2.591c-.1-.199-.3-.299-.3-.498-.1-.399.3-.299.5-.399.1-.1.4.199.3.399-.1.199-.3.398-.5.498zm.3 22.423c.1-.299.4-.797.7-.897.5 0 .4.498.4.797 0 .399-.3.598-.6.897-.2-.299-.6-.498-.5-.797zm.4-7.873c-.1-.299.2-.498.5-.498.6.1 1 .498 1.2.997.1.199-.3.498-.5.698-.3-.4-1-.499-1.2-1.197zm.4-4.186c-.3-.1-.6-.498-.5-.598.3-.299.7-.698 1.1-.897.2-.1.4.199.4.399-.1.698-.6.797-1 1.096zm1.8-17.938c-.2-.299.3-.498.5-.498.7-.199.9.399 1.1.997-.6.099-1.2-.1-1.6-.499zm1.7 9.268c.1 0 .2.1.2.199.1.1 0 .299-.1.399-.1 0-.2-.1-.3-.199-.1-.2 0-.299.2-.399zm-.2 12.457c.2 0 .6 0 .6.299 0 .399-.4.498-.6.698-.3-.1-.5-.299-.5-.498 0-.299.2-.499.5-.499zm.8-14.948c0-.299.2-.199.4-.199s.3.1.2.299c-.1.1-.2.299-.4.299-.2-.001-.2-.2-.2-.399zm.3-9.169c-.4-.1-.5-.399-.5-.698 0-.299.1-.598.4-.498.3 0 .5.199.5.598 0 .299-.2.399-.4.598zm-.3-2.292c-.3 0-.7-.1-.6-.498.1-.299.3-.698.6-.598.3 0 .5.399.6.698 0 .398-.3.398-.6.398zm-.6-1.595v-1.495s.1 0 .1-.1c0 .499 0 .997-.1 1.595.1 0 .1 0 0 0zm.5-20.529c.2.1.6.299.5.598 0 .199-.2.498-.4.399-.3-.1-.4-.299-.4-.698 0-.1.2-.299.3-.299zm-.1-1.794c0-.1.1-.199.2-.199.3.1.3.399.4.698-.2-.101-.7-.001-.6-.499zm.7-3.887c-.1.498-.2.698-.6.698-.2 0-.4-.1-.3-.299.2-.199.2-.698.5-.698.2-.099.5.199.4.299zm-.7-13.454c.2 0 .3.1.3.199 0 .1-.2.299-.3.399-.1-.199-.3-.299-.3-.399-.1-.199.1-.199.3-.199zm-.5 44.548c.1.1.5.1.4.399 0 .199-.2.299-.3.498-.3-.199-.5-.199-.5-.498.1-.2.2-.599.4-.399zm-.5-37.572c.2 0 .4.1.3.299-.1.199-.1.498-.3.498-.1 0-.3-.199-.3-.399-.1-.298 0-.398.3-.398zm-.2 4.086c.2 0 .3.1.3.299-.2.797-.2 1.694-.8 2.292-.2.199-.3.498-.6.399-.4-.1-.1-.498-.2-.598-.1-.997.6-1.595.9-2.392.1-.099.3 0 .4 0zM54.1 67.86c.2-.299.3-.698.8-.598.3 0 .3.199.3.399-.1.399-.4.598-.7.698-.3-.1-.5-.3-.4-.499zm-.3 19.932c.3 1.096-1 .897-1.2 1.595-.8-.997 0-1.296.6-1.794.4-.2.5.099.6.199zM52 66.166c.2-.299 0-.797.6-.698.3 0 .3.199.2.399-.2.299-.2.698-.6.897-.1-.2-.4-.399-.2-.598zm-.4 18.437c.1-.199.3-.299.5-.299s.3.1.2.299-.2.399-.5.399c0-.1-.2-.2-.2-.399zm0-13.952c-.2-.1-.3-.199-.3-.399 0-.199.1-.299.3-.299s.3.199.3.399c0 .199-.2.199-.3.299zm-.6-2.492c.1-.199.4-.299.7-.1.6.399 0 .698-.1 1.096-.2-.398-.9-.498-.6-.996zm-.3 19.234c.5-.598 1-1.096 1.6-1.595.3-.199.6.1.9.399-.8.698-1.4 1.395-2.1 1.894-.3.099-.5-.598-.4-.698zm.1 2.193c.2-.199.4-.199.6 0 .4.598-.1.797-.4 1.196-.4-.399-.6-.798-.2-1.196zm-.7-1.695c.2 0 .3.1.2.299s-.2.399-.5.399c-.2-.1-.3-.199-.3-.399.2-.199.4-.299.6-.299zm-.4-5.381c0 .299-.2.399-.4.498-.7.498-1.3 1.096-2 1.694-.2.1-.3.498-.6.199-.2-.199-.3-.498-.1-.698.6-.897 1.3-1.694 2.3-2.192.7-.398.6.2.8.499zm-1.1-3.09c0 .299-.1.498-.4.598-.2-.1-.5-.1-.5-.399 0-.199.1-.598.4-.698.3.001.5.2.5.499zm-.6-2.89c-.3-.199-.5-.399-.5-.698 0-.1.3-.299.4-.299.3 0 .5.199.5.498 0 .3-.2.499-.4.499zm-.1-3.189c-.1-.299-.6-.498-.3-.897.1-.1.5-.299.6-.199.4.399-.1.698-.3 1.096zm.2-2.093c0 .199-.1.299-.2.299-.2-.1-.3-.299-.4-.498-.1-.199.2-.199.3-.199.3 0 .4.099.3.398zm-.1-6.876c-.5.199-.9.199-1.6 0 .7-.1 1.1-.1 1.6 0zM46 79.42c.3 0 .5.1.5.399s-.2.498-.5.498-.5-.199-.6-.498c0-.498.4-.399.6-.399zm-3.6 28.702H44c0-.1.1-.1.1-.199.2-.299.2-.797.6-.897.1 0 .3.1.3.199 0 .498-.5.598-.6.897.3.598 1.2.897.9 1.694-.1.598-.3 1.096-1.2 1.296 1-1.794-.8-2.093-1.7-2.99zm.1 2.093c-.3-.199-.3-.399-.1-.598.3-.299.3.1.5.199.2.199.4.399.5.598.3.498-.1 1.993-.6 2.093-.3 0-.3-.199-.3-.399-.1-.598.3-.897.5-1.395-.1-.498-.3-.398-.5-.498zm.9 24.616c.1-.1.4 0 .4 0 .2.399.2.797-.3 1.296 0-.499-.6-.898-.1-1.296zm0-28.602c.1-.299.3-.698.6-.797.3-.1.5.299.5.598 0 .498-.4.598-.7.698-.2-.001-.4-.3-.4-.499zm1.7-2.691c-.1-.199 0-.299.3-.399.2 0 .4.1.4.299 0 .1-.1.299-.2.399-.3 0-.4-.199-.5-.299zm.6-26.011c0 .299-.2.498-.4.698-.3-.1-.5-.299-.5-.598 0-.399.2-.498.6-.498.2-.001.2.199.3.398zm-.9-6.378c.4 0 .4.399.4.698 0 .299 0 .797-.4.698-.4 0-.2-.498-.3-.698.1-.3-.1-.698.3-.698zm-.4 4.883c.2.1.4.299.3.498-.1.199-.1.399-.4.299-.2-.1-.4-.199-.3-.399.1-.199.3-.298.4-.398zm-.2 5.481h-.3c-.6-.399-.2-.797-.1-1.296.6.399.6.798.4 1.296zm-.5-12.058c.2 0 .4.1.3.299 0 .299-.2.399-.3.598-.1-.1-.3-.299-.3-.399 0-.199 0-.498.3-.498zm.3 25.811c.1 0 .1 0 0 0 .1 0 .1 0 0 0 .8-.1 1.2.399 1.6.897.1.1 0 .299-.1.498-.2.199-.3 0-.5-.1-.5-.199-1.3-.298-1-1.295.1 0 .1 0 0 0-.2 0-.3.1-.5.1-.3 0 .1.797-.4.399-.4-.299 0-.698.1-.997.2.299.9-.1.8.498zm-3.6-3.588c-.2.1-.7.199-.8-.1-.1-.299-.1-.598.2-.897.4-.399.9-.797.5-1.595-.4.199-.9.399-1.4.399-.6 0-.7-.399-.3-.698.8-.498.9-1.794 2.1-1.894.5 0 0-.698 0-1.196.6.199 1.2.299.6 1.196-.2.299 0 .797.3.897 1.4.399.5.997.1 1.495-.1.1-.3.1-.3.399.6-.399.9.498 1.5.299-.5.998-1.4 1.397-2.5 1.695zm1.2 9.568c0 .797.2 1.196-.1 1.595-.2-.499-.2-.898.1-1.595zm-.3-8.172c-.1-.498-.2-.897 0-1.296.2.399.1.797 0 1.296zm-1.8 16.643c-.3-.1-.6-.1-.6-.598 0-.399.4-.498.6-.797.3.299.7.498.8.897 0 .398-.5.398-.8.498zm.9.797c.1 0 .3 0 .3.199s-.2.299-.3.399c-.2-.1-.3-.199-.3-.399 0-.199.2-.199.3-.199zm-1 3.089c.8-.498.8.498 1.3.598-.4.598-.8.698-1.2.199-.2-.298-.5-.498-.1-.797zm1.5 8.671c-.3-.199-.7 0-1.1-.199.5-.499.9-.399 1.1.199zm-.1-39.565c-.1.498 1.2.399.4 1.096-.2.199-.4.698-.8.299-.5-.498.2-.896.4-1.395zm-.3-1.196c0-.299.1-.399.4-.399.2 0 .3.1.3.299 0 .299-.1.498-.4.498-.1.001-.3-.099-.3-.398zm2.3 3.488c-.2.299-.3 0-.4-.1-.6-.498 0-.897.2-1.296.4.499.5.898.2 1.396zm-1-5.381c-.1-.598-.7-.897-.2-1.495.1-.1.2-.199.4 0 .4.498.3.897-.2 1.495zm.1-4.585c0 .199-.1.299-.4.399-.2 0-.3-.199-.3-.399 0-.199.1-.299.3-.299.2-.099.4.001.4.299zm-.3-1.694c-.1.199-.2.299-.3.399-.2 0-.3-.199-.3-.299 0-.199.1-.299.3-.299.2-.1.4 0 .3.199zm-.5-13.254c.2 0 .3.199.3.399 0 .199-.1.299-.4.399-.1-.1-.3-.199-.3-.399s.2-.399.4-.399zm-.2 16.543c.4-.1.6.299.5.498-.1.199-.5.299-.8.399-.3 0-.4-.299-.4-.498.1-.499.5-.299.7-.399zm-1.4-7.076c.1-.299.5-.399.7-.199.5.399.1.897-.1 1.495-.4-.399-.8-.797-.6-1.296zm.3 5.083c0 .598.1 1.096-.2 1.595-.3-.499-.5-.997.2-1.595zm-.5 10.564c.2 0 .3.1.3.299 0 .299-.1.399-.3.498-.1-.1-.3-.199-.3-.399-.1-.299.1-.398.3-.398zm-.7-3.887v1.495c-.2-.598-.1-.997 0-1.495zM38 68.059c.2 0 .5 0 .5.299 0 .199-.2.399-.4.399-.3.1-.3-.299-.4-.299-.2-.399.1-.399.3-.399zm-1.9 1.994c.1-.199.4-.1.6.1.5.399.1.797-.1 1.296-.4-.599-.8-.998-.5-1.396zM36 82.311v-1.096c.3.398.1.797 0 1.096zm-.1 6.079c.2-.199.6-.299.5-.797-.3-1.296.6-1.296 1.5-1.196-.1 1.196-1 1.694-1.6 2.392-.1.1-.3.299-.5.199-.1-.2-.1-.499.1-.598zm1.7 11.162c-.1-.199-.3-.299-.4-.598-.1-.199.1-.299.3-.299.3 0 .4.199.5.399-.1.199-.2.298-.4.498zm-1.3-8.77c-.2-.199-.1-.498-.1-.897.4.299.5.598.1.897zm-1.2-3.488c.2 0 .4.199.4.399 0 .199-.1.299-.3.399-.2-.1-.4-.199-.4-.498 0-.101 0-.4.3-.3zm-.5 2.491c.2-.1.2.1.2.199s0 .299-.2.399c-.2 0-.3-.1-.3-.299.1-.1.2-.299.3-.299zm.2 10.265c.2.299.1.598-.2.797 0 0-.3-.1-.3-.199-.1-.399.3-.399.5-.598zm-1.4-14.052c.4-.1.3.199.4.299.1.698-.4.797-.9.997-.1-.499-.2-.997.5-1.296zm-.7 13.554c0-.399-.4-.698-.2-.997 0 0 .3-.1.4 0 .3.299.2.598-.2.997zm.1-6.279c0 .299-.1.498-.3.498-.3 0-.5-.299-.6-.698 0-.299.2-.498.5-.498.4.1.5.399.4.698zm-1.4 7.574s.1 0 0 0v.399c0 .299-.2.399-.4.498-.1 0-.2-.1-.3-.199-.1-.199 0-.399.2-.498.3-.001.4-.1.5-.2 0-.598-.6-.997-.7-1.495-.1-.199-.2-.299 0-.399.1-.1.4-.199.5-.1.4.399 1 .698 1.2 1.296.2.698-.3.798-1 .698zm1.1 4.485c0 .199-.1.199-.3.199s-.2-.1-.2-.399c.1-.1.1-.199.2-.299.2.299.3.399.3.499zm-.8-10.066c-.1.1-.1.1 0 0-.2.498.6.897 0 1.296-.5-.199-.1-.698-.2-.897-.8.1-.7-.399-.7-.897 0-.299.2-.598.3-.498.5.099.5.598.6.996zm-.1-5.381c0-.299.2-.498.5-.598.2 0 .3.1.2.299 0 .199-.1.498-.5.498 0 0-.2-.1-.2-.199zm.8-10.166c.2.399.3.698 0 1.196v-1.196zm-.2 4.186c.3 0 .4.199.4.498 0 .199-.1.299-.3.299-.3 0-.3-.199-.3-.399 0-.199-.1-.398.2-.398zm-1.5.199c.2 0 .3.1.3.299 0 .299-.1.598-.4.698-.3 0-.3-.199-.3-.399 0-.199 0-.498.4-.598zm.8 1.595c.2-.1.4.199.4.399s-1 1.794-1.1 1.794c-.3-.199-.7-.399-.6-.797.1-.698.7-1.097 1.3-1.396zm-2.7-.299c.3 0 .7.1.6.399 0 .199-.4.299-.5.399-.3-.1-.5-.299-.5-.598-.1-.2.1-.2.4-.2zm.2 3.687c.3-.299.8-.299 1-.797.1-.199.3-.299.4 0 .3.698.9 1.196.7 2.093-.1.598-.1.598-.9.299v.897c0 .598-.1 1.196-.8 1.196a1.4 1.4 0 0 1-1.4-1.196c0-.997.3-1.894 1-2.492zm.1 9.767c.3 0 .7.199.5.598-.1.299-.2.698-.6.797-.2-.199-.5-.498-.4-.698 0-.199 0-.697.5-.697zM28 105.83c-.2 0-.3-.1-.4-.299-.1-.199.1-.299.3-.299.2 0 .4 0 .4.299 0 .1 0 .299-.3.299zm.6 4.684c-.3 0-.4-.199-.5-.399-.1-.199 0-.299.2-.299s.5.1.5.299c.1.2 0 .399-.2.399zm.4-6.378c-.3-.199-.7-.498-.8-.897 0-.1.2-.299.3-.399.3.299.8.299 1 .598-.1.399-.4.698-.5.698zm.4-1.794c-.3 0-.3-.199-.4-.399.1-.199 0-.399.2-.399s.4.199.4.399-.1.399-.2.399zm0-7.474c-.2 0-.2-.199-.2-.299 0-.1 0-.299.2-.299s.2.199.2.299c.1.099 0 .199-.2.299zm.4 1.395c.6.299 1.4.299 1.3 1.196 0 .299-.1.598-.4.698-.3.1-.5-.199-.6-.399-.3-.499-.5-.897-.3-1.495zm.5 15.846c-.2 0-.3-.1-.4-.299 0-.199.1-.299.3-.299.2 0 .4 0 .4.299 0 .099-.1.299-.3.299zm.2-7.674c-.3-.1-.4-.399-.4-.598 0-.498.3-.797.7-.797.3 0 .5.199.4.498 0 .498-.5.598-.7.897zm.8 14.849c-.2 0-.5-.1-.4-.299.1-.299.3-.598.6-.498.1 0 .5 0 .5.299-.1.398-.4.598-.7.498zm1.8-5.78h-.7c0 .299-.1.498-.3.698-.3.199-.2.797-.7.698-.2-.1-.4-.399-.3-.598.1-.498.4-.797.9-.797.2 0 .3.1.5.199-.1-.498.3-.399.6-.598.2-.1.4-.1.5.199-.1-.001-.2.199-.5.199zm-.3-5.88c0-.199.1-.299.4-.299.2 0 .3.1.3.299 0 .199-.2.299-.4.299-.3.1-.3-.1-.3-.299zm.6-3.488c-.3-.199-.8-.199-1-.598.1-.399.4-.498.7-.399.4 0 .7.299.8.598 0 .299-.2.598-.5.399zm.8 10.962c.3 0 .4.299.4.698-.1.299-.2.698-.5.698s-.4-.399-.4-.698c0-.299.2-.598.5-.698zm0 3.787c-.3-.199-.4-.399-.2-.598.5-.498 1 0 1.7 0-.5.499-.8.997-1.5.598zm3-2.093c-.2 0-.4-.199-.5-.399-.1-.299.2-.399.4-.399.3 0 .4.199.4.399s-.2.3-.3.399zm.2-2.192c-.1-.1-.2-.299-.3-.399-.1-.199-.1-.399.2-.498.2 0 .4 0 .4.299.1.199-.1.399-.3.598zm-.1-6.279c-.2-.1-.5-.199-.4-.498 0-.199.3-.299.5-.299s.4.199.4.498-.2.299-.5.299zm-1.5-.896c-.3-.1-.3-.399-.2-.498.4-.797 1.4-.698 2-1.196.1-.1.4.199.4.399 0 .398-1.8 1.394-2.2 1.295zm2-35.479c-.4 0-.4-.498-.5-.897 0-.299.1-.598.5-.399.2.1.8 0 .7.598-.2.299-.4.698-.7.698zm.7 15.049c.3 0 .6.199.5.498-.1.199 0 .598-.4.698-.3-.1-.4-.299-.4-.498.1-.3-.2-.698.3-.698zm0 3.886c.1 0 .2.1.3.1.1.199 0 .299-.2.299-.2.1-.3-.1-.3-.199 0-.1.1-.2.2-.2zm1.2 44.249c-.2-.1-.4-.199-.4-.498 0-.199.1-.299.3-.299s.3.1.4.299c.1.298-.1.398-.3.498zm-1.3-3.987c1.2-.698.4-1.395.3-2.192-.6-1.096 0-2.89 1.2-3.189.4-.1.4-.299.5-.598-.1-.399.1-.598.4-.997v.698c.2.199.5.399.7.598.4.498.1.797-.2 1.096-.5.598-.3-.199-.5-.299a1.28 1.28 0 0 0-1.2 0c-.2.1-.2.498.1.598s.6 0 1.1.1c-1 .598-1.4 1.196-1.1 2.093.4-.1.6-.498.9-.797.2-.1.3-.498.5-.199.1.199.5.399.2.797-.4.598-.7 1.196-1.1 1.794-.4.697-1 .597-1.8.497zm2 7.475c-.2-.1-.4-.299-.4-.598 0-.199.1-.299.3-.199.2.1.4.199.4.498 0 .099-.1.199-.3.299zm.8 1.495c-.4 0-.4-.399-.4-.498 0-.199.2-.399.5-.299.2.1.6.1.5.399 0 .298-.3.298-.6.398zm.7-23.121s-.2 0-.2-.1c-.2-.299-.1-.598.3-.797.1.399.2.697-.1.897zm.6 26.31c-.2 0-.3-.199-.4-.399 0-.299.2-.299.4-.299s.4-.1.4.199c0 .299-.2.399-.4.499zm1.6 0c-.3-.1-.4-.399-.5-.698 0-.299.1-.399.3-.399.4 0 .6.299.6.598s-.2.499-.4.499zm-.5-2.791c-.2.199-.4 0-.5-.199-.3-.399-.5-.797-.2-1.296.3-.598.6-1.296.9-1.993.5.797.7 1.595.8 2.392 0 .698-.7.698-1 1.096zm1.3-8.57c-.2-.199-.1-.399 0-.598.3-.299.4.1.5.199.2.598.6.997 1.2 1.196.2.1.3.299.1.399-.3.199-.5-.1-.6-.399-.6 0-.8-.498-1.2-.797zm1.7 12.357c0 .199-.2.299-.3.299-.2-.1-.4-.299-.3-.498 0-.199.2-.299.4-.299s.2.199.2.498zm-.4-2.591c-.3-.1-.8-.199-.8-.598s.5-.399.7-.399c.4 0 .8 0 .8.399 0 .2-.3.598-.7.598zm.4-15.846c-.2-.199-.4-.299-.5-.399.2-.199.4-.399.6-.498.1.199.3.299.3.498 0 .2-.3.2-.4.399zm.4 21.327c.9-.498 1.4-.399 2.4.199-.9.399-1 .399-2.4-.199zm1.6-14.55c-.3-.1-.4-.199-.4-.498 0-.598.3-.897.8-.997.3-.1.7.1.7.399-.1.698-.9.698-1.1 1.096zm2.3-2.491c-.4.399-1.1-.1-1.2-.399-.4-.698.7-.698.8-1.296.3.698 1.2 1.097.4 1.695zm1.1 24.416c-.3 0-.4-.199-.4-.399 0-.199.1-.498.3-.399s.5 0 .5.299c0 .2-.2.399-.4.499zm.8-1.893s-.1 0 0 0c-.4-.498-.6-.997-.2-1.595.1-.199.3-.1.3 0 .3.598.3 1.096-.1 1.595zm-.1-2.492c-.5-.199-1-.199-1.4-.598.5-.199 0-1.296.9-1.196.7 0 1.1.498 1.3.997.2.598-.5.598-.8.797zm1.4-6.478c-.5-.1-.7-.399-.6-.797 0-.199 0-.598.3-.399.3.1.7.399.6.797 0 .2-.2.3-.3.399zm.1-17.34c-.4-.299-.7-.598-.2-1.096.2-.199.1-.498.5-.598.1.199.3.498.5.698.4.399.2.797-.1 1.196-.4.298-.5-.101-.7-.2zm.8 1.096c.2 0 .4.199.4.399 0 .1-.1.299-.2.299-.3.1-.3-.199-.5-.399-.1-.1.1-.299.3-.299zm0 27.506c-.1-.1-.4-.199-.3-.399.1-.199.2-.299.3-.399.1.1.2.299.4.498-.2.1-.3.2-.4.3zm.5-5.282c-.2.1-.3-.199-.4-.498-.1-.498.3-.698.5-.897.2-.1.4.199.4.498.1.498-.2.797-.5.897zm.9-5.98c-.1.199-.1.498-.5.498-.2-.199-.6-.399-.6-.797 0-.299.3-.299.5-.299.4 0 .7.2.6.598zm.2-2.989c.1-.199.8-.199.9 0 .3.498-.1.897-.4 1.395-.6-.299-.9-.797-.5-1.395zm.5 2.292c.1-.199.2-.498.4-.498.3.1.3.399.3.598 0 .199 0 .399-.2.399-.3-.001-.5-.2-.5-.499zm1.6 7.474c-.1.498-.3.997-.4 1.495-.1.299 0 .698-.4.698-.3-.1-.5-.399-.3-.997 0-.299.1-.797.1-1.196 0-.299 0-.698.3-.698.3.001.8.1.7.698zm-.2-6.677c0-.299.1-.698.4-.598.3.1.6.299.7.698-.1.399-.3.698-.6.698-.3-.1-.5-.399-.5-.798zm1 6.278c-.2-.199-.1-.299 0-.498.3-.399.6-.1 1 .1-.3.299-.5.697-1 .398zm1.2-4.285c-.3-.299-.8-.399-.9-.797 0-.1.4-.299.5-.299.3.1.7.299.8.698.1.099-.2.299-.4.398zm.1-1.395c-.6-.1-.8-.698-1-1.296-.1-.299.3-.498.5-.399.5.199.8.498.9.997 0 .299-.1.798-.4.698zm.6-2.392c-.5-.399-1.1-.698-1.2-1.296-.1-.399.6-.598.9-.598.5.1 1 .399 1 .997 0 .499-.4.698-.7.897zm1.6 4.784c-.6 0-.8-.598-.9-1.096-.2-.498.4-.498.6-.498.4.1.9.199 1.1.698-.1.497-.4.896-.8.896zm1.1 11.959c-.3 0-.3-.199-.4-.399.1-.299.3-.299.5-.299s.4.1.3.299c0 .199-.1.399-.4.399zm.3-16.245c-.1-.199.2-.399.3-.498.4-.1.3.299.5.498.1.199-.1.299-.2.399-.4 0-.6-.199-.6-.399zm1.3 17.142a.9.9 0 0 1-.6-.598c0-.1.3-.299.4-.199.2.1.6 0 .6.299.1.298-.2.398-.4.498zm.5-3.09c-.2-.1-.5-.199-.5-.399 0-.299.3-.498.5-.598.2-.1.3.199.3.399.1.299 0 .499-.3.598zm-.1-6.577c-.6-.698-.6-1.395.3-2.392-.3.897 1.5 1.096.3 2.093-.1.199-.3.697-.6.299zm2.7 3.687c-.7.399-1.2.399-1.9-.199.7 0 1.1-.399 1.6-.498.2 0 .5-.1.5.199.1.199 0 .399-.2.498zm1.4-6.079c-.3 0-.5 0-.9.1.3-.499.6-.299.9-.1zm1.3 5.382c.1.1.2.199.1.299-.1.1-.2.299-.4.1-.5-.299-1-.598-1.6-.997.8-.1 1.3.398 1.9.598zm-.3 9.567c-.3-.299-.8-.399-1-.797-.1-.199 1.2-1.495 1.3-1.495.4.1.5.498.4.897.2.598-.4.996-.7 1.395zm1.2-9.169c-.3 0-.4-.299-.3-.498 0-.1.3-.299.4-.399.3 0 .2.299.3.399 0 .399-.1.598-.4.498zm1.1-6.079a.9.9 0 0 1-.6-.598c0-.299.2-.199.4-.199.4-.1.6.1.6.498.1.299-.3.1-.4.299zm.3-1.794c-.3-.1-.5-.598-.4-.698.5-.399 1-.797 1.6-1.096.1-.1.4.199.4.399-.1.399-1.4 1.495-1.6 1.395zm1.4-25.313c0-.299.4-.698 1-.698.8.1 1.7.199 2.4.598-.6 1.096-.9 1.196-2.1.698l-.6-.299c-.2-.199-.7.199-.7-.299zm2.3 3.588h-1.9c.8-.299 1.2-.299 1.9 0zm-1.2 29.2c-.3-.299-.5-.698-.7-1.196-.1-.299.1-.399.4-.399.5.1.6.598.7.997.1.299-.1.498-.4.598zm.8-2.791c-.9-.698-.8-1.894-1.4-2.79 1.9.697 2.2 1.395 1.4 2.79zm1.6-.1c-.2.498-.6.498-1.1.399.2-.498.3-.897.9-.797.2 0 .3.199.2.398zm-.5-21.227c-.3-.299-.1-.698.1-1.096-.2-.1-.5-.199-.6-.399-.2-.299-.5-.598-.4-.997 0-.1.2-.1.3-.1.5-.1.6.399.7.698.1.199.1.399.1.598.3.1.7-.199.9.199.1.299.1.598-.2.797-.2.201-.6.599-.9.3zm1.2 19.334c-.3 0-.4-.199-.4-.399s.2-.299.4-.399c.3 0 .2.199.3.399-.1.2 0 .399-.3.399zm.6-1.395c-.2.1-.3-.199-.4-.299.1-.1.2-.399.3-.399.2-.1.4.199.3.299.1.199 0 .399-.2.399zm.2-19.135c-.1-.399.3-.498.6-.598.3-.1.4.299.4.498.1.299-.3.399-.4.598-.2-.199-.6-.298-.6-.498zm1.3 26.211c-.4 0-.5-.299-.5-.498-.1-.299.2-.299.4-.399.3 0 .7.1.6.399 0 .199-.3.398-.5.498zm.6-40.362c-.2 0-.4.1-.4-.199-.1-.598.5-.698.9-.897 0 .498 0 .896-.5 1.096zm.4 38.368c-.1-.199.1-.299.2-.399.2-.1.3 0 .3.199s0 .399-.1.399c-.2.001-.3-.099-.4-.199zm.2 4.186c0-.1-.1-.199-.1-.299 0-.399.3-.299.6-.199a1.2 1.2 0 0 0-.5.498zm-.1-9.169c-.1 0-.1-.199 0-.399 0-.199.2-.299.3-.399.1.199.3.399.3.498 0 .101-.2.3-.6.3zm.4-2.092c-.3 0-.4-.399-.4-.698-.1-.498.2-.897.7-.997.4-.1.4.299.5.598-.2.499-.3 1.097-.8 1.097zm.7 10.962c.4-.199.7-.199 1.1-.1-.4.299-.7.299-1.1.1zm1.7-12.557c-.2-.1-.4-.299-.3-.498.1-.199 0-.598.4-.598s.2.399.2.598c.1.299.1.598-.3.498zm-1.3-8.272c-.2-.1-.3-.399-.3-.698s1.8-.997 2.1-.897c.1.1.2.1.3.199-.1.4-1.9 1.496-2.1 1.396zm1.7-25.213c-.3-.1-.7-.199-.8-.698 0-.299.2-.498.6-.498s.6.299.6.698c0 .199-.1.597-.4.498zm.7 41.358c-.1 0-.4-.299-.3-.498.1-.299.3-.698.7-.797.1 0 .3.199.5.299-.3.597-.5.896-.9.996zm1.7 2.89c-.3-.498-.7-.797-.8-1.196 0-.1.6-.698.8-.598.3.1.6.498.7.897.1.399-.4.499-.7.897zm.2-21.028c-.4-.399-1.4-.199-1.5-1.096 0-.399.2-1.096.9-1.296.1 0 1.3 1.894 1.3 1.993-.1.3-.3.499-.7.399zm.5-2.99c0 .299-.1.399-.5.399-.1-.1-.3-.199-.3-.299 0-.199.2-.299.4-.399.2 0 .4 0 .4.299zm-.2-2.491v-1.495c.2.698.2 1.096 0 1.495zm-.6-10.265c-.2-.498-.1-.897 0-1.296.1.399.2.798 0 1.296zm.7.897c.4-.199.6-.1 1.1-.1-.5.299-.8.2-1.1.1zm1-8.172c-.7-.498-1.7.498-2.2-.498-.4-.797-.4-1.495.3-2.292 0 .797.1 1.395.1 1.993.5.1.8-.299 1.1-.399-.1-.399.2-.598.3-.897.1.1.2.1.3.199.2.399-.1.498-.4.598 0 .299-.1.698.4.797.4.1.2.599.1.499zm-.5-3.089c-.2-.199-.3-.598-.2-.698.4-.299.8 0 1.2.1.2-.897-.3-2.093 1.3-2.292.3 0 .1-.498-.1-.698-.4-.498-.8-1.096-.5-1.894.1-.199-.2-.598.3-.698.4-.1.7.1.9.399.4.698.9 1.196 1.5 1.694.5.498-.2.997 0 1.495.3-.199.5-.698.9-.399.3.199.1.598 0 .897-.1.897.4.199.6.199 0-.1.1-.1.1-.199.2-.299.5-.399.9-.399 0 0 .1.199.1.299-.1.598-.6.199-.9.299.1.797-.2 1.296-1.1 1.096-.6-.1-.8.399-1.3.598-.5-.897.5-1.495.6-2.292-.8.498-1.4 1.296-2.1 1.993-.3.299-.6.598-1.1.698-.2.101-.6.3-1.1-.198zm3.1-.299c.4.399.8.897.1 1.395-.2.199-.4.199-.6 0-.3-.598 0-.997.5-1.395zm-.7 6.776c-.3.199-.4.199-.5-.1-.3-.598-.6-.997.3-1.495-.2.599 1.1.798.2 1.595zm.8-2.292c.1-.399.3-.797.3-1.096 0-.299.1-.598.3-.598.2 0 .3.399.3.598 0 .498 0 .997-.2 1.495-.2.299-.5.299-.8.1-.2-.1-.1-.299.1-.499zm.9 5.382c.1-.498-.6-1.096.1-1.495.4-.199.6.498.3.997-.1.199-.1.299-.2.498.7.399 1.2.897.8 1.894-.4-.299-.7-.698-1.1-.897-.9-.399-.6-.698.1-.997zm.3-3.189c.1 0 .3.1.3.199 0 .199-.2.299-.3.498-.1-.1-.3-.199-.3-.399 0-.099.2-.199.3-.298zm.9 41.856c0 .199-.2.199-.3.199 0 0-.1 0-.2-.1.1-.1.1-.199.2-.399.1.201.3.201.3.3zm-4-3.089c-.1-.1-.3-.1-.3-.199-.1-.1 0-.299.1-.399.4-.199.8-.498 1.4-.797-.1.897-.9.897-1.2 1.395zm1.5 17.839c-.2 0-.3-.1-.2-.299 0-.1.1-.299.2-.299.2-.1.2.1.2.299 0 .1 0 .199-.2.299zm1-47.537c-.2.498-.6.897-1.3.698-.8-.199-.4-.598-.3-.997h-.4c.5-.199.9-.498 1.4 0 .4-.2.8-.2.6.299zm.1-1.894c.2.1.3.1.4.1.3.399.9.598.7 1.296-.1.199-.2.299-.3.199-.5-.399-.9-.897-.8-1.595zm2.3 39.066c-.4.399-.6.199-1 0-.5.199-.5-.199-.7-.498.5-.399 1-.797 1.5-1.296.3.599.9 1.196.2 1.794zm1.9-4.783c-.4-.199-.8-.399-.8-.897 0-.399.4-.698.7-.698.5-.1.6.399.7.698 0 .398-.3.697-.6.897zm1 17.241c-.4-.698-.7-1.296-.4-1.993 1.6.697 1.6.697.4 1.993zm11.2-8.671c-.3 0-.3-.299-.4-.598.1-.399.4-.399.7-.399.2 0 .5.1.4.399-.1.299-.4.598-.7.598zm13.7-15.447c-.6.199-.6-.299-1-.698.6.1 1-.199 1.3.199.1.2 0 .4-.3.499zm17.8-17.241c0 .199-.1.299-.3.199-.1-.1-.4-.199-.3-.498 0-.199.2-.199.3-.199.3 0 .4.199.3.498z" data-color="1" class="icon1"></path><path d="M172.6 105.631l-18.7 18.636c.3.299.6.698.8 1.196-.7 0-1.3.199-1.9.598-.2.199-.3 0-.4-.1 0 0-.1-.1-.1-.199l-21.9 21.825h.1c.2-.1.3 0 .4.299 0 .199 0 .399-.3.399s-.5-.1-.5-.299l-24.8 24.715c-.1.1 0 .299.1.299 2-.1 4-.399 5.9-.698h.1l23.1-23.021c-.3-.199-.6-.498-.4-.698.3-.498.3-1.196 1.1-1.196.3 0 .5.1.3.399-.1.299-.2.498-.4.797l36.7-36.575c.2-.199.3-.399.3-.598.3-1.694.4-3.388.6-5.083v-.1c0-.1 0-.199.1-.299.2-.297 0-.397-.2-.297zm-49.4 54.413c-.1 0-.3-.1-.3-.199 0-.399.1-.498.3-.498.2 0 .4 0 .4.299 0 .199-.2.398-.4.398zm7-9.866c-.1-.1-.4-.199-.3-.399.2-.299.5-.498.8-.797.1.199.3.299.2.498-.1.3-.4.499-.7.698zm2.2-1.295c-.3 0-.6-.299-.7-.598.1-.299.3-.399.6-.399.4 0 .5.299.5.598 0 .1-.2.399-.4.399zm5.5-6.678c-.2 0-.4-.1-.4-.299 0-.199.1-.299.3-.399.2 0 .3.1.4.299 0 .2 0 .399-.3.399zm3.6-.896c-.1 0-.2-.199-.3-.299.1-.199.1-.399.4-.399.3 0 .2.199.2.399 0 .199-.1.398-.3.299zm10.8-14.551c-.1.199-.2.399-.3.399-.2 0-.3-.1-.3-.299 0-.199.1-.399.3-.399.2.1.4.1.3.299zm4.3-.299c-.3 0-.4-.1-.4-.399 0-.199.1-.299.3-.299.3 0 .4.1.4.399 0 .2-.1.299-.3.299zm16-18.436c0 .498-.5.498-.8.698-.3-.199-.4-.399-.3-.698.1-.399.5-.498.8-.598.5 0 .3.398.3.598z" data-color="1" class="icon1"></path><path d="M170.9 117.39l-2.4 2.392c.2.498.7.598 1 .897 0 .199 0 .399-.2.399-.4-.199-.9-.399-1.1-.897v-.1l-4.9 4.883.3.299c0 .1-.1.399-.3.399-.3.1-.4 0-.6-.199l-37.2 37.073v.199s-.1.1-.2.1l-8 7.973c-.1.1 0 .299.1.299 2.6-.598 5.1-1.395 7.6-2.292h.1l30.2-30.097c-.2-.1-.3-.299-.3-.498 0-.299.4-.498.6-.399.2 0 .3.1.4.299l.5-.498c-.1-.1-.2-.199-.2-.299-.1-.199.2-.199.3-.199s.2 0 .3.1l11.8-11.76c.1-.1.2-.299.3-.498.6-1.694 1.2-3.388 1.6-5.182-.1 0-.3-.199-.3-.399 0-.299.3-.498.5-.598h.1l.3-1.196c0-.201-.2-.3-.3-.201zm-25.4 28.104c-.1.299-.4.598-.6.897-.5-.299-.6-.598-.6-.797 0-.399.4-.498.7-.498.4 0 .6.199.5.398z" data-color="1" class="icon1"></path><path d="M165 133.336l-31.8 31.691c-.1.1 0 .199.1.199 2.7-1.395 5.3-2.89 7.8-4.584-.1 0-.3 0-.4-.1-.2-.199-.3-.399-.2-.598.1-.399.5-.399.8-.399.2 0 .3.1.5.199 0-.199 0-.399.2-.598.3-.199.5-.698 1-.598.2.1.2.399.1.498-.1.1-.1.1-.1.199.1-.1.3-.199.4-.299v-.1c0-.399.4-.399.5-.399h.2c8.8-6.577 16-15.148 21.1-25.014 0-.097-.1-.197-.2-.097zm-13.6 17.54c-.2-.199-.6-.299-.5-.698.1-.399.5-.299.8-.399.2 0 .6.1.5.399-.1.498-.6.498-.8.698z" data-color="1" class="icon1"></path></g></g>
</svg>
</g></svg></svg>