<svg version="1.1" preserveAspectRatio="none" xmlns="http://www.w3.org/2000/svg" width="500" height="500" viewBox="0 0 500 500"><rect width="100%" height="100%" fill="#1A244D" fill-opacity="1"/><svg viewBox="2601.2677 2116.3155 492.5759 234" width="333" height="158.19287951359374" x="83.5px" y="170.9036px" xmlns="http://www.w3.org/2000/svg" xmlns:xlink="http://www.w3.org/1999/xlink" preserveAspectRatio="none"><defs></defs><style>.background {fill:#1A244D;fill-opacity:1;}.icon1 {fill:#FFCC57;fill-opacity:1;}.icon1-str {stroke:#FFCC57;stroke-opacity:1;}.icon2 {fill:#3EA0C0;fill-opacity:1;}.icon3 {fill:#0AF9FF;fill-opacity:0.95;}.icon3-str {stroke:#0AF9FF;stroke-opacity:0.95;}</style><g opacity="1" transform="rotate(0 2777.2674 2116.3155)">
<svg width="316.5762" height="180" x="2777.2674" y="2116.3155" version="1.1" preserveAspectRatio="none" viewBox="0 0 316.5762 180">
  <defs><rect x="0" y="0" width="316.5762" height="180" rx="0px" ry="0px" id="id-B7crM0kCi1708326732782"></rect></defs><use class="icon1 icon3-str" style="stroke-width:0;" xlink:href="#id-B7crM0kCi1708326732782"></use>
</svg>
</g><g opacity="1" transform="rotate(0 2673.7849 2326.3155)">
<svg width="347.5415" height="24" x="2673.7849" y="2326.3155" version="1.1" preserveAspectRatio="none" viewBox="4.2 -30.28 443.12 30.6">
  <g transform="matrix(1 0 0 1 0 0)" class="icon1"><path id="id-6izo4zJp18" d="M4.20 0L4.20-28L16-28Q20.44-28 23.88-26.24Q27.32-24.48 29.22-21.30Q31.12-18.12 31.12-14L31.12-14Q31.12-9.88 29.22-6.70Q27.32-3.52 23.88-1.76Q20.44 0 16 0L16 0L4.20 0ZM8.20-3.48L15.76-3.48Q19.16-3.48 21.74-4.80Q24.32-6.12 25.72-8.50Q27.12-10.88 27.12-14L27.12-14Q27.12-17.12 25.72-19.50Q24.32-21.88 21.74-23.20Q19.16-24.52 15.76-24.52L15.76-24.52L8.20-24.52L8.20-3.48Z M46.40-21.40Q50.80-21.40 53.14-19.24Q55.48-17.08 55.48-12.80L55.48-12.80L55.48 0L51.84 0L51.84-2.80Q50.88-1.32 49.10-0.54Q47.32 0.24 44.88 0.24L44.88 0.24Q41.32 0.24 39.18-1.48Q37.04-3.20 37.04-6L37.04-6Q37.04-8.80 39.08-10.50Q41.12-12.20 45.56-12.20L45.56-12.20L51.64-12.20L51.64-12.96Q51.64-15.44 50.20-16.76Q48.76-18.08 45.96-18.08L45.96-18.08Q44.08-18.08 42.28-17.46Q40.48-16.84 39.24-15.80L39.24-15.80L37.64-18.68Q39.28-20 41.56-20.70Q43.84-21.40 46.40-21.40L46.40-21.40ZM45.52-2.72Q47.72-2.72 49.32-3.70Q50.92-4.68 51.64-6.48L51.64-6.48L51.64-9.44L45.72-9.44Q40.84-9.44 40.84-6.16L40.84-6.16Q40.84-4.56 42.08-3.64Q43.32-2.72 45.52-2.72L45.52-2.72Z M75.92-21.40Q79.96-21.40 82.34-19.06Q84.72-16.72 84.72-12.20L84.72-12.20L84.72 0L80.88 0L80.88-11.76Q80.88-14.84 79.40-16.40Q77.92-17.96 75.16-17.96L75.16-17.96Q72.04-17.96 70.24-16.14Q68.44-14.32 68.44-10.92L68.44-10.92L68.44 0L64.60 0L64.60-21.20L68.28-21.20L68.28-18Q69.44-19.64 71.42-20.52Q73.40-21.40 75.92-21.40L75.92-21.40Z M93.84 0L93.84-21.20L97.68-21.20L97.68 0L93.84 0ZM95.76-25.28Q94.64-25.28 93.90-26Q93.16-26.72 93.16-27.76L93.16-27.76Q93.16-28.80 93.90-29.54Q94.64-30.28 95.76-30.28L95.76-30.28Q96.88-30.28 97.62-29.58Q98.36-28.88 98.36-27.84L98.36-27.84Q98.36-26.76 97.62-26.02Q96.88-25.28 95.76-25.28L95.76-25.28Z M126.16-10.48Q126.16-10.04 126.08-9.32L126.08-9.32L108.88-9.32Q109.24-6.52 111.34-4.82Q113.44-3.12 116.56-3.12L116.56-3.12Q120.36-3.12 122.68-5.68L122.68-5.68L124.80-3.20Q123.36-1.52 121.22-0.64Q119.08 0.24 116.44 0.24L116.44 0.24Q113.08 0.24 110.48-1.14Q107.88-2.52 106.46-5Q105.04-7.48 105.04-10.60L105.04-10.60Q105.04-13.68 106.42-16.16Q107.80-18.64 110.22-20.02Q112.64-21.40 115.68-21.40L115.68-21.40Q118.72-21.40 121.10-20.02Q123.48-18.64 124.82-16.16Q126.16-13.68 126.16-10.48L126.16-10.48ZM115.68-18.16Q112.92-18.16 111.06-16.48Q109.20-14.80 108.88-12.08L108.88-12.08L122.48-12.08Q122.16-14.76 120.30-16.46Q118.44-18.16 115.68-18.16L115.68-18.16Z M133.48 0L133.48-29.68L137.32-29.68L137.32 0L133.48 0Z M159.84 0.32Q155.60 0.32 152.20-1.54Q148.80-3.40 146.86-6.68Q144.92-9.96 144.92-14L144.92-14Q144.92-18.04 146.86-21.32Q148.80-24.60 152.20-26.46Q155.60-28.32 159.84-28.32L159.84-28.32Q164.04-28.32 167.44-26.46Q170.84-24.60 172.76-21.34Q174.68-18.08 174.68-14L174.68-14Q174.68-9.92 172.76-6.66Q170.84-3.40 167.44-1.54Q164.04 0.32 159.84 0.32L159.84 0.32ZM159.84-3.24Q162.92-3.24 165.38-4.64Q167.84-6.04 169.26-8.50Q170.68-10.96 170.68-14L170.68-14Q170.68-17.04 169.26-19.50Q167.84-21.96 165.38-23.36Q162.92-24.76 159.84-24.76L159.84-24.76Q156.76-24.76 154.26-23.36Q151.76-21.96 150.34-19.50Q148.92-17.04 148.92-14L148.92-14Q148.92-10.96 150.34-8.50Q151.76-6.04 154.26-4.64Q156.76-3.24 159.84-3.24L159.84-3.24Z M188.32 0.24Q185.72 0.24 183.32-0.46Q180.92-1.16 179.56-2.24L179.56-2.24L181.16-5.28Q182.56-4.28 184.56-3.68Q186.56-3.08 188.60-3.08L188.60-3.08Q193.64-3.08 193.64-5.96L193.64-5.96Q193.64-6.92 192.96-7.48Q192.28-8.04 191.26-8.30Q190.24-8.56 188.36-8.88L188.36-8.88Q185.80-9.28 184.18-9.80Q182.56-10.32 181.40-11.56Q180.24-12.80 180.24-15.04L180.24-15.04Q180.24-17.92 182.64-19.66Q185.04-21.40 189.08-21.40L189.08-21.40Q191.20-21.40 193.32-20.88Q195.44-20.36 196.80-19.48L196.80-19.48L195.16-16.44Q192.56-18.12 189.04-18.12L189.04-18.12Q186.60-18.12 185.32-17.32Q184.04-16.52 184.04-15.20L184.04-15.20Q184.04-14.16 184.76-13.56Q185.48-12.96 186.54-12.68Q187.60-12.40 189.52-12.04L189.52-12.04Q192.08-11.60 193.66-11.10Q195.24-10.60 196.36-9.40Q197.48-8.20 197.48-6.04L197.48-6.04Q197.48-3.16 195.02-1.46Q192.56 0.24 188.32 0.24L188.32 0.24Z M220.20-21.20L224.04-21.20L224.04 0L220.40 0L220.40-3.20Q219.24-1.56 217.34-0.66Q215.44 0.24 213.20 0.24L213.20 0.24Q208.96 0.24 206.52-2.10Q204.08-4.44 204.08-9L204.08-9L204.08-21.20L207.92-21.20L207.92-9.44Q207.92-6.36 209.40-4.78Q210.88-3.20 213.64-3.20L213.64-3.20Q216.68-3.20 218.44-5.04Q220.20-6.88 220.20-10.24L220.20-10.24L220.20-21.20Z M242.44 0.24Q239.28 0.24 236.76-1.16Q234.24-2.56 232.82-5.02Q231.40-7.48 231.40-10.60L231.40-10.60Q231.40-13.72 232.82-16.18Q234.24-18.64 236.76-20.02Q239.28-21.40 242.44-21.40L242.44-21.40Q245.60-21.40 248.10-20.02Q250.60-18.64 252.02-16.18Q253.44-13.72 253.44-10.60L253.44-10.60Q253.44-7.48 252.02-5.02Q250.60-2.56 248.10-1.16Q245.60 0.24 242.44 0.24L242.44 0.24ZM242.44-3.12Q244.48-3.12 246.10-4.06Q247.72-5 248.64-6.70Q249.56-8.40 249.56-10.60L249.56-10.60Q249.56-12.80 248.64-14.50Q247.72-16.20 246.10-17.12Q244.48-18.04 242.44-18.04L242.44-18.04Q240.40-18.04 238.78-17.12Q237.16-16.20 236.22-14.50Q235.28-12.80 235.28-10.60L235.28-10.60Q235.28-8.40 236.22-6.70Q237.16-5 238.78-4.06Q240.40-3.12 242.44-3.12L242.44-3.12Z M272.08-21.40Q276.12-21.40 278.50-19.06Q280.88-16.72 280.88-12.20L280.88-12.20L280.88 0L277.04 0L277.04-11.76Q277.04-14.84 275.56-16.40Q274.08-17.96 271.32-17.96L271.32-17.96Q268.20-17.96 266.40-16.14Q264.60-14.32 264.60-10.92L264.60-10.92L264.60 0L260.76 0L260.76-29.68L264.60-29.68L264.60-18.20Q265.80-19.72 267.74-20.56Q269.68-21.40 272.08-21.40L272.08-21.40Z M297.72-21.40Q302.12-21.40 304.46-19.24Q306.80-17.08 306.80-12.80L306.80-12.80L306.80 0L303.16 0L303.16-2.80Q302.20-1.32 300.42-0.54Q298.64 0.24 296.20 0.24L296.20 0.24Q292.64 0.24 290.50-1.48Q288.36-3.20 288.36-6L288.36-6Q288.36-8.80 290.40-10.50Q292.44-12.20 296.88-12.20L296.88-12.20L302.96-12.20L302.96-12.96Q302.96-15.44 301.52-16.76Q300.08-18.08 297.28-18.08L297.28-18.08Q295.40-18.08 293.60-17.46Q291.80-16.84 290.56-15.80L290.56-15.80L288.96-18.68Q290.60-20 292.88-20.70Q295.16-21.40 297.72-21.40L297.72-21.40ZM296.84-2.72Q299.04-2.72 300.64-3.70Q302.24-4.68 302.96-6.48L302.96-6.48L302.96-9.44L297.04-9.44Q292.16-9.44 292.16-6.16L292.16-6.16Q292.16-4.56 293.40-3.64Q294.64-2.72 296.84-2.72L296.84-2.72Z M315.92 0L315.92-21.20L319.76-21.20L319.76 0L315.92 0ZM317.84-25.28Q316.72-25.28 315.98-26Q315.24-26.72 315.24-27.76L315.24-27.76Q315.24-28.80 315.98-29.54Q316.72-30.28 317.84-30.28L317.84-30.28Q318.96-30.28 319.70-29.58Q320.44-28.88 320.44-27.84L320.44-27.84Q320.44-26.76 319.70-26.02Q318.96-25.28 317.84-25.28L317.84-25.28Z M340.40-21.40Q344.44-21.40 346.82-19.06Q349.20-16.72 349.20-12.20L349.20-12.20L349.20 0L345.36 0L345.36-11.76Q345.36-14.84 343.88-16.40Q342.40-17.96 339.64-17.96L339.64-17.96Q336.52-17.96 334.72-16.14Q332.92-14.32 332.92-10.92L332.92-10.92L332.92 0L329.08 0L329.08-21.20L332.76-21.20L332.76-18Q333.92-19.64 335.90-20.52Q337.88-21.40 340.40-21.40L340.40-21.40Z M369.04-4L370.24-1.24Q369.40-0.52 368.16-0.14Q366.92 0.24 365.60 0.24L365.60 0.24Q362.40 0.24 360.64-1.48Q358.88-3.20 358.88-6.40L358.88-6.40L358.88-18.04L355.28-18.04L355.28-21.20L358.88-21.20L358.88-25.84L362.72-25.84L362.72-21.20L368.80-21.20L368.80-18.04L362.72-18.04L362.72-6.56Q362.72-4.84 363.58-3.92Q364.44-3 366.04-3L366.04-3Q367.80-3 369.04-4L369.04-4Z M395.32-10.48Q395.32-10.04 395.24-9.32L395.24-9.32L378.04-9.32Q378.40-6.52 380.50-4.82Q382.60-3.12 385.72-3.12L385.72-3.12Q389.52-3.12 391.84-5.68L391.84-5.68L393.96-3.20Q392.52-1.52 390.38-0.64Q388.24 0.24 385.60 0.24L385.60 0.24Q382.24 0.24 379.64-1.14Q377.04-2.52 375.62-5Q374.20-7.48 374.20-10.60L374.20-10.60Q374.20-13.68 375.58-16.16Q376.96-18.64 379.38-20.02Q381.80-21.40 384.84-21.40L384.84-21.40Q387.88-21.40 390.26-20.02Q392.64-18.64 393.98-16.16Q395.32-13.68 395.32-10.48L395.32-10.48ZM384.84-18.16Q382.08-18.16 380.22-16.48Q378.36-14.80 378.04-12.08L378.04-12.08L391.64-12.08Q391.32-14.76 389.46-16.46Q387.60-18.16 384.84-18.16L384.84-18.16Z M411.88 0.24Q408.64 0.24 406.10-1.16Q403.56-2.56 402.12-5.02Q400.68-7.48 400.68-10.60L400.68-10.60Q400.68-13.72 402.12-16.18Q403.56-18.64 406.10-20.02Q408.64-21.40 411.88-21.40L411.88-21.40Q414.76-21.40 417.02-20.24Q419.28-19.08 420.52-16.88L420.52-16.88L417.60-15Q416.60-16.52 415.12-17.28Q413.64-18.04 411.84-18.04L411.84-18.04Q409.76-18.04 408.10-17.12Q406.44-16.20 405.50-14.50Q404.56-12.80 404.56-10.60L404.56-10.60Q404.56-8.36 405.50-6.66Q406.44-4.96 408.10-4.04Q409.76-3.12 411.84-3.12L411.84-3.12Q413.64-3.12 415.12-3.88Q416.60-4.64 417.60-6.16L417.60-6.16L420.52-4.32Q419.28-2.12 417.02-0.94Q414.76 0.24 411.88 0.24L411.88 0.24Z M438.52-21.40Q442.56-21.40 444.94-19.06Q447.32-16.72 447.32-12.20L447.32-12.20L447.32 0L443.48 0L443.48-11.76Q443.48-14.84 442.00-16.40Q440.52-17.96 437.76-17.96L437.76-17.96Q434.64-17.96 432.84-16.14Q431.04-14.32 431.04-10.92L431.04-10.92L431.04 0L427.20 0L427.20-29.68L431.04-29.68L431.04-18.20Q432.24-19.72 434.18-20.56Q436.12-21.40 438.52-21.40L438.52-21.40Z"/></g>
</svg>
</g><g opacity="1" transform="rotate(0 2807.2674 2146.3155)">
<svg width="256.5762" height="120" x="2807.2674" y="2146.3155" version="1.1" preserveAspectRatio="none" viewBox="3.32 -28.48 61.92000000000001 28.96">
  <g transform="matrix(1 0 0 1 0 0)" class="background"><path id="id-D6z1nYkh2" d="M3.32 0L3.32-28L16.04-28Q20.60-28 24.10-26.26Q27.60-24.52 29.54-21.36Q31.48-18.20 31.48-14L31.48-14Q31.48-9.80 29.54-6.64Q27.60-3.48 24.10-1.74Q20.60 0 16.04 0L16.04 0L3.32 0ZM9.80-5.32L15.72-5.32Q19.92-5.32 22.42-7.66Q24.92-10 24.92-14L24.92-14Q24.92-18 22.42-20.34Q19.92-22.68 15.72-22.68L15.72-22.68L9.80-22.68L9.80-5.32Z M49.92 0.48Q45.56 0.48 42.06-1.40Q38.56-3.28 36.58-6.58Q34.60-9.88 34.60-14L34.60-14Q34.60-18.12 36.58-21.42Q38.56-24.72 42.06-26.60Q45.56-28.48 49.92-28.48L49.92-28.48Q54.28-28.48 57.76-26.60Q61.24-24.72 63.24-21.42Q65.24-18.12 65.24-14L65.24-14Q65.24-9.88 63.24-6.58Q61.24-3.28 57.76-1.40Q54.28 0.48 49.92 0.48L49.92 0.48ZM49.92-5.04Q52.40-5.04 54.40-6.18Q56.40-7.32 57.54-9.36Q58.68-11.40 58.68-14L58.68-14Q58.68-16.60 57.54-18.64Q56.40-20.68 54.40-21.82Q52.40-22.96 49.92-22.96L49.92-22.96Q47.44-22.96 45.44-21.82Q43.44-20.68 42.30-18.64Q41.16-16.60 41.16-14L41.16-14Q41.16-11.40 42.30-9.36Q43.44-7.32 45.44-6.18Q47.44-5.04 49.92-5.04L49.92-5.04Z"/></g>
</svg>
</g><g opacity="1" transform="rotate(0 2601.2677 2116.3155)">
<svg width="179.9997" height="180" x="2601.2677" y="2116.3155" version="1.1" preserveAspectRatio="none" viewBox="0 0 179.9997 180">
  <defs><rect x="3.5999939999999997" y="3.5999939999999997" width="172.799712" height="172.800012" rx="0px" ry="0px" id="id-tBXipXk0b1708326732782"></rect></defs><use class="background icon1-str" style="stroke-width:7.199987999999999;" xlink:href="#id-tBXipXk0b1708326732782"></use>
</svg>
</g><g opacity="1" transform="rotate(0 2631.2733 2146.3155)">
<svg width="119.9886" height="120" x="2631.2733" y="2146.3155" version="1.1" preserveAspectRatio="none" viewBox="29.113567352294922 29.113567352294922 141.8728485107422 141.8864288330078">
  <g transform="matrix(1 0 0 1 0 0)"><g><path d="M114.9 121.6l6.5 28c4.9-2.1 9.4-4.9 13.5-8.3l-5.4-23-14.6 3.3z" data-color="1" class="icon1"></path><path d="M137.6 116.3l4.2 17.9c1.5-1.8 2.8-3.7 4.1-5.7 3-4.8 5.1-9.9 6.5-15.2l-.1-.4-14.7 3.4z" data-color="1" class="icon1"></path><path d="M93.8 126.5l6.4 27.4c5.1 0 10.1-.8 14.9-2.1l-6.7-28.7-14.6 3.4z" data-color="1" class="icon1"></path><path d="M76.1 148.4c5 2.5 10.3 4.2 15.8 5l-5.2-22.1-10.6 17.1z" data-color="1" class="icon1"></path><path d="M112.3 90l-2.5 4 13.3-3.1 8.1-1.9 14.6-3.4 5.8-1.3c-1.5-4.8-3.6-9.4-6.3-13.6l-24.5 5.7-8.5 13.6z" data-color="1" class="icon1"></path><path d="M147.3 92l-14.6 3.4-8.1 1.9-14.6 3.4-5.1 1.2-1.1 1.8-10 16.2 13.1-3.1 6.6-1.5 14.6-3.4 8.1-1.9 14.6-3.4 2.9-.7c.6-5.1.4-10.3-.5-15.3l-5.9 1.4z" data-color="1" class="icon1"></path><path d="M132.8 57.1l-5.8 9.3 12.7-3a51.6 51.6 0 0 0-6.9-6.3z" data-color="1" class="icon1"></path><path d="M82.8 122.4l1.3-2.2 6-9.6 3.9-6.3 4.6-7.5.2-.3 2.4-3.9 8.5-13.7 6.2-10L126 52.7c-.7-.4-1.4-.7-2-1.1-3.9-1.9-8-3.4-12.2-4.4l-5.2 8.4-11.2 18-6.2 10-4.2 6.8-5.6 9-1.1 1.8-4.9 7.8-5 8.1-.2.3L58 133.9c3.2 3.9 6.9 7.4 11.2 10.4l3.7-6 5-8 4.9-7.9z" data-color="1" class="icon1"></path><path d="M66 107.7l2.5-4L77 90.1 85.7 76l11.2-18 7.3-11.8c-.4 0-.8-.1-1.1-.1-1-.1-2-.1-3.1-.1-5 0-9.9.7-14.6 2L47 110c.1.8.3 1.5.5 2.3 1.2 5.1 3.1 10 5.6 14.4.2.3.4.7.6 1L65.8 108l.2-.3z" data-color="1" class="icon1"></path><path d="M54.2 71.5C48.8 80.1 46 89.9 46 99.8l30-48.2C67.2 56 59.6 62.8 54.2 71.5z" data-color="1" class="icon1"></path><path d="M169.1 83.9c-4.3-18.5-15.5-34.1-31.6-44.1S102.4 26.7 83.9 31c-18.5 4.3-34.1 15.5-44.1 31.6S26.7 97.7 31 116.2s15.5 34.1 31.6 44.1C74 167.4 86.8 171 99.9 171c5.4 0 10.9-.6 16.3-1.9 18.5-4.3 34.1-15.5 44.1-31.6s13.1-35.2 8.8-53.6zm-8.9 25.7l-.3 1.5c-.9 5.1-2.5 10-4.8 14.8-1 2.2-2.2 4.3-3.4 6.4-.7 1.1-1.4 2.1-2.1 3.2-3.7 5.2-8.1 9.7-13 13.4-4.2 3.1-8.7 5.7-13.6 7.7-3 1.2-6 2.2-9.2 2.9-10.9 2.5-22 2.1-32.4-1.3-1.4-.5-2.9-1-4.3-1.6-1.6-.7-3.2-1.4-4.8-2.2-1.5-.8-3.1-1.6-4.5-2.5-.8-.5-1.6-1-2.3-1.5-4.2-2.9-8.1-6.3-11.4-10.1-1.9-2.2-3.6-4.4-5.2-6.8-.4-.6-.7-1.2-1.1-1.8-2.5-4.2-4.5-8.6-6-13.3-.4-1.4-.9-2.9-1.2-4.4-1.3-5.6-1.8-11.2-1.5-16.8.4-9.6 3.2-19.1 8.1-27.6.3-.6.7-1.1 1-1.7s.7-1.1 1.1-1.6c6.2-9.3 14.6-16.5 24.4-21.2 3.9-1.9 8.1-3.3 12.4-4.4 1.5-.3 3-.6 4.4-.8 3.2-.5 6.4-.8 9.5-.8 2.4 0 4.8.2 7.2.4.4 0 .7.1 1.1.1 2.5.3 4.9.8 7.3 1.5 4.9 1.3 9.6 3.2 14.1 5.7.8.5 1.6.9 2.4 1.4.6.4 1.2.8 1.8 1.1.9.6 1.7 1.2 2.5 1.8 3.3 2.5 6.3 5.2 9 8.2 2.7 3 5 6.2 7 9.6 2.6 4.4 4.6 9 6 14 .3 1 .6 2.1.8 3.2 2 7.8 2.3 15.8 1 23.5z" data-color="1" class="icon1"></path></g></g>
</svg>
</g></svg></svg>